G04*
G04 #@! TF.GenerationSoftware,Altium Limited,Altium Designer,25.8.1 (18)*
G04*
G04 Layer_Physical_Order=1*
G04 Layer_Color=255*
%FSLAX44Y44*%
%MOMM*%
G71*
G04*
G04 #@! TF.SameCoordinates,47027A52-A871-4FAA-A7FE-F427427C3117*
G04*
G04*
G04 #@! TF.FilePolarity,Positive*
G04*
G01*
G75*
G04:AMPARAMS|DCode=14|XSize=0.3mm|YSize=1.15mm|CornerRadius=0mm|HoleSize=0mm|Usage=FLASHONLY|Rotation=175.000|XOffset=0mm|YOffset=0mm|HoleType=Round|Shape=Rectangle|*
%AMROTATEDRECTD14*
4,1,4,0.1995,0.5597,0.0993,-0.5859,-0.1995,-0.5597,-0.0993,0.5859,0.1995,0.5597,0.0*
%
%ADD14ROTATEDRECTD14*%

G04:AMPARAMS|DCode=15|XSize=0.6mm|YSize=1.15mm|CornerRadius=0mm|HoleSize=0mm|Usage=FLASHONLY|Rotation=175.000|XOffset=0mm|YOffset=0mm|HoleType=Round|Shape=Rectangle|*
%AMROTATEDRECTD15*
4,1,4,0.3490,0.5467,0.2487,-0.5990,-0.3490,-0.5467,-0.2487,0.5990,0.3490,0.5467,0.0*
%
%ADD15ROTATEDRECTD15*%

G04:AMPARAMS|DCode=16|XSize=1.21mm|YSize=0.58mm|CornerRadius=0.0725mm|HoleSize=0mm|Usage=FLASHONLY|Rotation=161.520|XOffset=0mm|YOffset=0mm|HoleType=Round|Shape=RoundedRectangle|*
%AMROUNDEDRECTD16*
21,1,1.2100,0.4350,0,0,161.52*
21,1,1.0650,0.5800,0,0,161.52*
1,1,0.1450,-0.4361,0.3751*
1,1,0.1450,0.5740,0.0375*
1,1,0.1450,0.4361,-0.3751*
1,1,0.1450,-0.5740,-0.0375*
%
%ADD16ROUNDEDRECTD16*%
G04:AMPARAMS|DCode=17|XSize=1.04mm|YSize=1.47mm|CornerRadius=0mm|HoleSize=0mm|Usage=FLASHONLY|Rotation=161.683|XOffset=0mm|YOffset=0mm|HoleType=Round|Shape=Rectangle|*
%AMROTATEDRECTD17*
4,1,4,0.7246,0.5343,0.2627,-0.8612,-0.7246,-0.5343,-0.2627,0.8612,0.7246,0.5343,0.0*
%
%ADD17ROTATEDRECTD17*%

G04:AMPARAMS|DCode=18|XSize=1.04mm|YSize=1.47mm|CornerRadius=0mm|HoleSize=0mm|Usage=FLASHONLY|Rotation=249.339|XOffset=0mm|YOffset=0mm|HoleType=Round|Shape=Rectangle|*
%AMROTATEDRECTD18*
4,1,4,-0.5043,0.7459,0.8712,0.2272,0.5043,-0.7459,-0.8712,-0.2272,-0.5043,0.7459,0.0*
%
%ADD18ROTATEDRECTD18*%

G04:AMPARAMS|DCode=19|XSize=1.04mm|YSize=1.47mm|CornerRadius=0mm|HoleSize=0mm|Usage=FLASHONLY|Rotation=250.657|XOffset=0mm|YOffset=0mm|HoleType=Round|Shape=Rectangle|*
%AMROTATEDRECTD19*
4,1,4,-0.5213,0.7341,0.8658,0.2472,0.5213,-0.7341,-0.8658,-0.2472,-0.5213,0.7341,0.0*
%
%ADD19ROTATEDRECTD19*%

G04:AMPARAMS|DCode=20|XSize=1.04mm|YSize=1.47mm|CornerRadius=0mm|HoleSize=0mm|Usage=FLASHONLY|Rotation=161.386|XOffset=0mm|YOffset=0mm|HoleType=Round|Shape=Rectangle|*
%AMROTATEDRECTD20*
4,1,4,0.7274,0.5306,0.2582,-0.8625,-0.7274,-0.5306,-0.2582,0.8625,0.7274,0.5306,0.0*
%
%ADD20ROTATEDRECTD20*%

G04:AMPARAMS|DCode=21|XSize=1.04mm|YSize=1.47mm|CornerRadius=0mm|HoleSize=0mm|Usage=FLASHONLY|Rotation=251.229|XOffset=0mm|YOffset=0mm|HoleType=Round|Shape=Rectangle|*
%AMROTATEDRECTD21*
4,1,4,-0.5286,0.7289,0.8632,0.2558,0.5286,-0.7289,-0.8632,-0.2558,-0.5286,0.7289,0.0*
%
%ADD21ROTATEDRECTD21*%

%ADD22P,1.1314X4X204.811*%
G04:AMPARAMS|DCode=23|XSize=1.04mm|YSize=1.47mm|CornerRadius=0mm|HoleSize=0mm|Usage=FLASHONLY|Rotation=173.998|XOffset=0mm|YOffset=0mm|HoleType=Round|Shape=Rectangle|*
%AMROTATEDRECTD23*
4,1,4,0.5940,0.6766,0.4403,-0.7853,-0.5940,-0.6766,-0.4403,0.7853,0.5940,0.6766,0.0*
%
%ADD23ROTATEDRECTD23*%

G04:AMPARAMS|DCode=24|XSize=1.04mm|YSize=1.47mm|CornerRadius=0mm|HoleSize=0mm|Usage=FLASHONLY|Rotation=175.000|XOffset=0mm|YOffset=0mm|HoleType=Round|Shape=Rectangle|*
%AMROTATEDRECTD24*
4,1,4,0.5821,0.6869,0.4540,-0.7775,-0.5821,-0.6869,-0.4540,0.7775,0.5821,0.6869,0.0*
%
%ADD24ROTATEDRECTD24*%

G04:AMPARAMS|DCode=25|XSize=1.04mm|YSize=1.47mm|CornerRadius=0mm|HoleSize=0mm|Usage=FLASHONLY|Rotation=174.344|XOffset=0mm|YOffset=0mm|HoleType=Round|Shape=Rectangle|*
%AMROTATEDRECTD25*
4,1,4,0.5899,0.6802,0.4450,-0.7827,-0.5899,-0.6802,-0.4450,0.7827,0.5899,0.6802,0.0*
%
%ADD25ROTATEDRECTD25*%

G04:AMPARAMS|DCode=26|XSize=1.04mm|YSize=1.47mm|CornerRadius=0mm|HoleSize=0mm|Usage=FLASHONLY|Rotation=302.066|XOffset=0mm|YOffset=0mm|HoleType=Round|Shape=Rectangle|*
%AMROTATEDRECTD26*
4,1,4,-0.8989,0.0505,0.3468,0.8309,0.8989,-0.0505,-0.3468,-0.8309,-0.8989,0.0505,0.0*
%
%ADD26ROTATEDRECTD26*%

G04:AMPARAMS|DCode=27|XSize=1.04mm|YSize=1.47mm|CornerRadius=0mm|HoleSize=0mm|Usage=FLASHONLY|Rotation=173.890|XOffset=0mm|YOffset=0mm|HoleType=Round|Shape=Rectangle|*
%AMROTATEDRECTD27*
4,1,4,0.5953,0.6755,0.4388,-0.7862,-0.5953,-0.6755,-0.4388,0.7862,0.5953,0.6755,0.0*
%
%ADD27ROTATEDRECTD27*%

%ADD28P,1.1314X4X400.43*%
G04:AMPARAMS|DCode=29|XSize=2.7mm|YSize=1.2mm|CornerRadius=0mm|HoleSize=0mm|Usage=FLASHONLY|Rotation=355.000|XOffset=0mm|YOffset=0mm|HoleType=Round|Shape=Rectangle|*
%AMROTATEDRECTD29*
4,1,4,-1.3971,-0.4801,-1.2926,0.7154,1.3971,0.4801,1.2926,-0.7154,-1.3971,-0.4801,0.0*
%
%ADD29ROTATEDRECTD29*%

G04:AMPARAMS|DCode=30|XSize=1mm|YSize=0.24mm|CornerRadius=0mm|HoleSize=0mm|Usage=FLASHONLY|Rotation=85.000|XOffset=0mm|YOffset=0mm|HoleType=Round|Shape=Rectangle|*
%AMROTATEDRECTD30*
4,1,4,0.0760,-0.5086,-0.1631,-0.4876,-0.0760,0.5086,0.1631,0.4876,0.0760,-0.5086,0.0*
%
%ADD30ROTATEDRECTD30*%

G04:AMPARAMS|DCode=31|XSize=1.04mm|YSize=1.47mm|CornerRadius=0mm|HoleSize=0mm|Usage=FLASHONLY|Rotation=212.521|XOffset=0mm|YOffset=0mm|HoleType=Round|Shape=Rectangle|*
%AMROTATEDRECTD31*
4,1,4,0.0433,0.8993,0.8336,-0.3402,-0.0433,-0.8993,-0.8336,0.3402,0.0433,0.8993,0.0*
%
%ADD31ROTATEDRECTD31*%

G04:AMPARAMS|DCode=32|XSize=1.04mm|YSize=1.47mm|CornerRadius=0mm|HoleSize=0mm|Usage=FLASHONLY|Rotation=212.223|XOffset=0mm|YOffset=0mm|HoleType=Round|Shape=Rectangle|*
%AMROTATEDRECTD32*
4,1,4,0.0480,0.8991,0.8318,-0.3445,-0.0480,-0.8991,-0.8318,0.3445,0.0480,0.8991,0.0*
%
%ADD32ROTATEDRECTD32*%

G04:AMPARAMS|DCode=33|XSize=1.21mm|YSize=0.58mm|CornerRadius=0.0725mm|HoleSize=0mm|Usage=FLASHONLY|Rotation=212.357|XOffset=0mm|YOffset=0mm|HoleType=Round|Shape=RoundedRectangle|*
%AMROUNDEDRECTD33*
21,1,1.2100,0.4350,0,0,212.357*
21,1,1.0650,0.5800,0,0,212.357*
1,1,0.1450,-0.5662,-0.1013*
1,1,0.1450,0.3334,0.4687*
1,1,0.1450,0.5662,0.1013*
1,1,0.1450,-0.3334,-0.4687*
%
%ADD33ROUNDEDRECTD33*%
G04:AMPARAMS|DCode=34|XSize=1.04mm|YSize=1.47mm|CornerRadius=0mm|HoleSize=0mm|Usage=FLASHONLY|Rotation=303.261|XOffset=0mm|YOffset=0mm|HoleType=Round|Shape=Rectangle|*
%AMROTATEDRECTD34*
4,1,4,-0.8998,0.0317,0.3294,0.8379,0.8998,-0.0317,-0.3294,-0.8379,-0.8998,0.0317,0.0*
%
%ADD34ROTATEDRECTD34*%

G04:AMPARAMS|DCode=35|XSize=1.04mm|YSize=1.47mm|CornerRadius=0mm|HoleSize=0mm|Usage=FLASHONLY|Rotation=85.000|XOffset=0mm|YOffset=0mm|HoleType=Round|Shape=Rectangle|*
%AMROTATEDRECTD35*
4,1,4,0.6869,-0.5821,-0.7775,-0.4540,-0.6869,0.5821,0.7775,0.4540,0.6869,-0.5821,0.0*
%
%ADD35ROTATEDRECTD35*%

G04:AMPARAMS|DCode=36|XSize=1.04mm|YSize=1.47mm|CornerRadius=0mm|HoleSize=0mm|Usage=FLASHONLY|Rotation=200.137|XOffset=0mm|YOffset=0mm|HoleType=Round|Shape=Rectangle|*
%AMROTATEDRECTD36*
4,1,4,0.2352,0.8691,0.7413,-0.5111,-0.2352,-0.8691,-0.7413,0.5111,0.2352,0.8691,0.0*
%
%ADD36ROTATEDRECTD36*%

G04:AMPARAMS|DCode=37|XSize=1.04mm|YSize=1.47mm|CornerRadius=0mm|HoleSize=0mm|Usage=FLASHONLY|Rotation=201.702|XOffset=0mm|YOffset=0mm|HoleType=Round|Shape=Rectangle|*
%AMROTATEDRECTD37*
4,1,4,0.2114,0.8752,0.7549,-0.4906,-0.2114,-0.8752,-0.7549,0.4906,0.2114,0.8752,0.0*
%
%ADD37ROTATEDRECTD37*%

G04:AMPARAMS|DCode=38|XSize=1.21mm|YSize=0.58mm|CornerRadius=0.0725mm|HoleSize=0mm|Usage=FLASHONLY|Rotation=111.993|XOffset=0mm|YOffset=0mm|HoleType=Round|Shape=RoundedRectangle|*
%AMROUNDEDRECTD38*
21,1,1.2100,0.4350,0,0,111.993*
21,1,1.0650,0.5800,0,0,111.993*
1,1,0.1450,0.0023,0.5752*
1,1,0.1450,0.4011,-0.4123*
1,1,0.1450,-0.0023,-0.5752*
1,1,0.1450,-0.4011,0.4123*
%
%ADD38ROUNDEDRECTD38*%
G04:AMPARAMS|DCode=39|XSize=1.04mm|YSize=1.47mm|CornerRadius=0mm|HoleSize=0mm|Usage=FLASHONLY|Rotation=112.156|XOffset=0mm|YOffset=0mm|HoleType=Round|Shape=Rectangle|*
%AMROTATEDRECTD39*
4,1,4,0.8768,-0.2044,-0.4846,-0.7588,-0.8768,0.2044,0.4846,0.7588,0.8768,-0.2044,0.0*
%
%ADD39ROTATEDRECTD39*%

%ADD40P,1.1314X4X220.0*%
G04:AMPARAMS|DCode=41|XSize=1.04mm|YSize=1.47mm|CornerRadius=0mm|HoleSize=0mm|Usage=FLASHONLY|Rotation=320.033|XOffset=0mm|YOffset=0mm|HoleType=Round|Shape=Rectangle|*
%AMROTATEDRECTD41*
4,1,4,-0.8707,-0.2293,0.0736,0.8973,0.8707,0.2293,-0.0736,-0.8973,-0.8707,-0.2293,0.0*
%
%ADD41ROTATEDRECTD41*%

G04:AMPARAMS|DCode=42|XSize=1.04mm|YSize=1.47mm|CornerRadius=0mm|HoleSize=0mm|Usage=FLASHONLY|Rotation=320.331|XOffset=0mm|YOffset=0mm|HoleType=Round|Shape=Rectangle|*
%AMROTATEDRECTD42*
4,1,4,-0.8695,-0.2338,0.0689,0.8977,0.8695,0.2338,-0.0689,-0.8977,-0.8695,-0.2338,0.0*
%
%ADD42ROTATEDRECTD42*%

G04:AMPARAMS|DCode=43|XSize=1.21mm|YSize=0.58mm|CornerRadius=0.0725mm|HoleSize=0mm|Usage=FLASHONLY|Rotation=320.167|XOffset=0mm|YOffset=0mm|HoleType=Round|Shape=RoundedRectangle|*
%AMROUNDEDRECTD43*
21,1,1.2100,0.4350,0,0,320.167*
21,1,1.0650,0.5800,0,0,320.167*
1,1,0.1450,0.2696,-0.5081*
1,1,0.1450,-0.5482,0.1741*
1,1,0.1450,-0.2696,0.5081*
1,1,0.1450,0.5482,-0.1741*
%
%ADD43ROUNDEDRECTD43*%
G04:AMPARAMS|DCode=44|XSize=1.04mm|YSize=1.47mm|CornerRadius=0mm|HoleSize=0mm|Usage=FLASHONLY|Rotation=50.239|XOffset=0mm|YOffset=0mm|HoleType=Round|Shape=Rectangle|*
%AMROTATEDRECTD44*
4,1,4,0.2324,-0.8698,-0.8976,0.0704,-0.2324,0.8698,0.8976,-0.0704,0.2324,-0.8698,0.0*
%
%ADD44ROTATEDRECTD44*%

G04:AMPARAMS|DCode=45|XSize=1.04mm|YSize=1.47mm|CornerRadius=0mm|HoleSize=0mm|Usage=FLASHONLY|Rotation=151.848|XOffset=0mm|YOffset=0mm|HoleType=Round|Shape=Rectangle|*
%AMROTATEDRECTD45*
4,1,4,0.8053,0.4027,0.1117,-0.8934,-0.8053,-0.4027,-0.1117,0.8934,0.8053,0.4027,0.0*
%
%ADD45ROTATEDRECTD45*%

G04:AMPARAMS|DCode=46|XSize=1.04mm|YSize=1.47mm|CornerRadius=0mm|HoleSize=0mm|Usage=FLASHONLY|Rotation=49.876|XOffset=0mm|YOffset=0mm|HoleType=Round|Shape=Rectangle|*
%AMROTATEDRECTD46*
4,1,4,0.2269,-0.8713,-0.8971,0.0761,-0.2269,0.8713,0.8971,-0.0761,0.2269,-0.8713,0.0*
%
%ADD46ROTATEDRECTD46*%

G04:AMPARAMS|DCode=47|XSize=1.04mm|YSize=1.47mm|CornerRadius=0mm|HoleSize=0mm|Usage=FLASHONLY|Rotation=100.862|XOffset=0mm|YOffset=0mm|HoleType=Round|Shape=Rectangle|*
%AMROTATEDRECTD47*
4,1,4,0.8198,-0.3722,-0.6238,-0.6492,-0.8198,0.3722,0.6238,0.6492,0.8198,-0.3722,0.0*
%
%ADD47ROTATEDRECTD47*%

G04:AMPARAMS|DCode=48|XSize=1.04mm|YSize=1.47mm|CornerRadius=0mm|HoleSize=0mm|Usage=FLASHONLY|Rotation=152.131|XOffset=0mm|YOffset=0mm|HoleType=Round|Shape=Rectangle|*
%AMROTATEDRECTD48*
4,1,4,0.8033,0.4067,0.1161,-0.8928,-0.8033,-0.4067,-0.1161,0.8928,0.8033,0.4067,0.0*
%
%ADD48ROTATEDRECTD48*%

G04:AMPARAMS|DCode=49|XSize=1.04mm|YSize=1.47mm|CornerRadius=0mm|HoleSize=0mm|Usage=FLASHONLY|Rotation=111.859|XOffset=0mm|YOffset=0mm|HoleType=Round|Shape=Rectangle|*
%AMROTATEDRECTD49*
4,1,4,0.8758,-0.2090,-0.4885,-0.7563,-0.8758,0.2090,0.4885,0.7563,0.8758,-0.2090,0.0*
%
%ADD49ROTATEDRECTD49*%

G04:AMPARAMS|DCode=50|XSize=1.21mm|YSize=0.58mm|CornerRadius=0.0725mm|HoleSize=0mm|Usage=FLASHONLY|Rotation=62.422|XOffset=0mm|YOffset=0mm|HoleType=Round|Shape=RoundedRectangle|*
%AMROUNDEDRECTD50*
21,1,1.2100,0.4350,0,0,62.422*
21,1,1.0650,0.5800,0,0,62.422*
1,1,0.1450,0.4393,0.3713*
1,1,0.1450,-0.0537,-0.5727*
1,1,0.1450,-0.4393,-0.3713*
1,1,0.1450,0.0537,0.5727*
%
%ADD50ROUNDEDRECTD50*%
G04:AMPARAMS|DCode=51|XSize=1.04mm|YSize=1.47mm|CornerRadius=0mm|HoleSize=0mm|Usage=FLASHONLY|Rotation=62.288|XOffset=0mm|YOffset=0mm|HoleType=Round|Shape=Rectangle|*
%AMROTATEDRECTD51*
4,1,4,0.4089,-0.8022,-0.8925,-0.1186,-0.4089,0.8022,0.8925,0.1186,0.4089,-0.8022,0.0*
%
%ADD51ROTATEDRECTD51*%

G04:AMPARAMS|DCode=52|XSize=1.04mm|YSize=1.47mm|CornerRadius=0mm|HoleSize=0mm|Usage=FLASHONLY|Rotation=62.585|XOffset=0mm|YOffset=0mm|HoleType=Round|Shape=Rectangle|*
%AMROTATEDRECTD52*
4,1,4,0.4130,-0.8000,-0.8919,-0.1232,-0.4130,0.8000,0.8919,0.1232,0.4130,-0.8000,0.0*
%
%ADD52ROTATEDRECTD52*%

G04:AMPARAMS|DCode=53|XSize=1.04mm|YSize=1.47mm|CornerRadius=0mm|HoleSize=0mm|Usage=FLASHONLY|Rotation=11.095|XOffset=0mm|YOffset=0mm|HoleType=Round|Shape=Rectangle|*
%AMROTATEDRECTD53*
4,1,4,-0.3688,-0.8213,-0.6517,0.6212,0.3688,0.8213,0.6517,-0.6212,-0.3688,-0.8213,0.0*
%
%ADD53ROTATEDRECTD53*%

G04:AMPARAMS|DCode=54|XSize=1.21mm|YSize=0.58mm|CornerRadius=0.0725mm|HoleSize=0mm|Usage=FLASHONLY|Rotation=11.229|XOffset=0mm|YOffset=0mm|HoleType=Round|Shape=RoundedRectangle|*
%AMROUNDEDRECTD54*
21,1,1.2100,0.4350,0,0,11.229*
21,1,1.0650,0.5800,0,0,11.229*
1,1,0.1450,0.5647,-0.1096*
1,1,0.1450,-0.4800,-0.3170*
1,1,0.1450,-0.5647,0.1096*
1,1,0.1450,0.4800,0.3170*
%
%ADD54ROUNDEDRECTD54*%
G04:AMPARAMS|DCode=55|XSize=1.04mm|YSize=1.47mm|CornerRadius=0mm|HoleSize=0mm|Usage=FLASHONLY|Rotation=11.393|XOffset=0mm|YOffset=0mm|HoleType=Round|Shape=Rectangle|*
%AMROTATEDRECTD55*
4,1,4,-0.3646,-0.8232,-0.6549,0.6178,0.3646,0.8232,0.6549,-0.6178,-0.3646,-0.8232,0.0*
%
%ADD55ROTATEDRECTD55*%

G04:AMPARAMS|DCode=56|XSize=1.04mm|YSize=1.47mm|CornerRadius=0mm|HoleSize=0mm|Usage=FLASHONLY|Rotation=100.938|XOffset=0mm|YOffset=0mm|HoleType=Round|Shape=Rectangle|*
%AMROTATEDRECTD56*
4,1,4,0.8203,-0.3711,-0.6230,-0.6500,-0.8203,0.3711,0.6230,0.6500,0.8203,-0.3711,0.0*
%
%ADD56ROTATEDRECTD56*%

G04:AMPARAMS|DCode=57|XSize=1.32mm|YSize=0.6mm|CornerRadius=0.075mm|HoleSize=0mm|Usage=FLASHONLY|Rotation=85.000|XOffset=0mm|YOffset=0mm|HoleType=Round|Shape=RoundedRectangle|*
%AMROUNDEDRECTD57*
21,1,1.3200,0.4500,0,0,85.0*
21,1,1.1700,0.6000,0,0,85.0*
1,1,0.1500,0.2751,0.5632*
1,1,0.1500,0.1732,-0.6024*
1,1,0.1500,-0.2751,-0.5632*
1,1,0.1500,-0.1732,0.6024*
%
%ADD57ROUNDEDRECTD57*%
G04:AMPARAMS|DCode=58|XSize=1.04mm|YSize=1.47mm|CornerRadius=0mm|HoleSize=0mm|Usage=FLASHONLY|Rotation=301.494|XOffset=0mm|YOffset=0mm|HoleType=Round|Shape=Rectangle|*
%AMROTATEDRECTD58*
4,1,4,-0.8984,0.0594,0.3551,0.8274,0.8984,-0.0594,-0.3551,-0.8274,-0.8984,0.0594,0.0*
%
%ADD58ROTATEDRECTD58*%

%ADD59P,1.1314X4X255.648*%
G04:AMPARAMS|DCode=60|XSize=1.04mm|YSize=1.47mm|CornerRadius=0mm|HoleSize=0mm|Usage=FLASHONLY|Rotation=201.130|XOffset=0mm|YOffset=0mm|HoleType=Round|Shape=Rectangle|*
%AMROTATEDRECTD60*
4,1,4,0.2201,0.8730,0.7500,-0.4981,-0.2201,-0.8730,-0.7500,0.4981,0.2201,0.8730,0.0*
%
%ADD60ROTATEDRECTD60*%

%ADD61P,1.1314X4X155.284*%
G04:AMPARAMS|DCode=62|XSize=1.04mm|YSize=1.47mm|CornerRadius=0mm|HoleSize=0mm|Usage=FLASHONLY|Rotation=100.366|XOffset=0mm|YOffset=0mm|HoleType=Round|Shape=Rectangle|*
%AMROTATEDRECTD62*
4,1,4,0.8166,-0.3793,-0.6294,-0.6438,-0.8166,0.3793,0.6294,0.6438,0.8166,-0.3793,0.0*
%
%ADD62ROTATEDRECTD62*%

%ADD63P,1.1314X4X54.52*%
G04:AMPARAMS|DCode=64|XSize=1.04mm|YSize=1.47mm|CornerRadius=0mm|HoleSize=0mm|Usage=FLASHONLY|Rotation=49.304|XOffset=0mm|YOffset=0mm|HoleType=Round|Shape=Rectangle|*
%AMROTATEDRECTD64*
4,1,4,0.2182,-0.8735,-0.8963,0.0850,-0.2182,0.8735,0.8963,-0.0850,0.2182,-0.8735,0.0*
%
%ADD64ROTATEDRECTD64*%

%ADD65P,1.1314X4X363.458*%
%ADD66P,1.1314X4X105.713*%
G04:AMPARAMS|DCode=67|XSize=1.04mm|YSize=1.47mm|CornerRadius=0mm|HoleSize=0mm|Usage=FLASHONLY|Rotation=151.559|XOffset=0mm|YOffset=0mm|HoleType=Round|Shape=Rectangle|*
%AMROTATEDRECTD67*
4,1,4,0.8073,0.3986,0.1072,-0.8939,-0.8073,-0.3986,-0.1072,0.8939,0.8073,0.3986,0.0*
%
%ADD67ROTATEDRECTD67*%

G04:AMPARAMS|DCode=68|XSize=1.04mm|YSize=1.47mm|CornerRadius=0mm|HoleSize=0mm|Usage=FLASHONLY|Rotation=174.813|XOffset=0mm|YOffset=0mm|HoleType=Round|Shape=Rectangle|*
%AMROTATEDRECTD68*
4,1,4,0.5843,0.6850,0.4514,-0.7790,-0.5843,-0.6850,-0.4514,0.7790,0.5843,0.6850,0.0*
%
%ADD68ROTATEDRECTD68*%

G04:AMPARAMS|DCode=114|XSize=1mm|YSize=1.02mm|CornerRadius=0mm|HoleSize=0mm|Usage=FLASHONLY|Rotation=265.000|XOffset=0mm|YOffset=0mm|HoleType=Round|Shape=Rectangle|*
%AMROTATEDRECTD114*
4,1,4,-0.4645,0.5425,0.5516,0.4537,0.4645,-0.5425,-0.5516,-0.4537,-0.4645,0.5425,0.0*
%
%ADD114ROTATEDRECTD114*%

%ADD136C,0.6000*%
%ADD137C,0.3000*%
%ADD138C,0.2540*%
%ADD139C,0.7000*%
%ADD140C,0.4000*%
%ADD141C,0.6500*%
G04:AMPARAMS|DCode=142|XSize=2.1mm|YSize=1mm|CornerRadius=0mm|HoleSize=0mm|Usage=FLASHONLY|Rotation=265.000|XOffset=0mm|YOffset=0mm|HoleType=Round|Shape=Round|*
%AMOVALD142*
21,1,1.1000,1.0000,0.0000,0.0000,265.0*
1,1,1.0000,0.0479,0.5479*
1,1,1.0000,-0.0479,-0.5479*
%
%ADD142OVALD142*%

G04:AMPARAMS|DCode=143|XSize=1.8mm|YSize=1mm|CornerRadius=0.25mm|HoleSize=0mm|Usage=FLASHONLY|Rotation=265.000|XOffset=0mm|YOffset=0mm|HoleType=Round|Shape=RoundedRectangle|*
%AMROUNDEDRECTD143*
21,1,1.8000,0.5000,0,0,265.0*
21,1,1.3000,1.0000,0,0,265.0*
1,1,0.5000,-0.3057,-0.6257*
1,1,0.5000,-0.1924,0.6693*
1,1,0.5000,0.3057,0.6257*
1,1,0.5000,0.1924,-0.6693*
%
%ADD143ROUNDEDRECTD143*%
%ADD144C,1.3080*%
%ADD145P,1.8498X4X114.94*%
%ADD146P,1.8498X4X165.777*%
%ADD147P,1.8498X4X65.413*%
%ADD148P,1.8498X4X273.587*%
%ADD149P,1.8498X4X375.842*%
%ADD150P,1.8498X4X324.649*%
%ADD151C,0.6000*%
G36*
X1497647Y1316732D02*
X1515246Y1315347D01*
X1532749Y1313042D01*
X1550107Y1309825D01*
X1567272Y1305704D01*
X1584199Y1300690D01*
X1600840Y1294798D01*
X1617149Y1288042D01*
X1633083Y1280442D01*
X1648597Y1272019D01*
X1663649Y1262795D01*
X1678198Y1252796D01*
X1692203Y1242049D01*
X1705627Y1230584D01*
X1718432Y1218432D01*
X1730584Y1205627D01*
X1742049Y1192203D01*
X1752796Y1178198D01*
X1762795Y1163649D01*
X1772018Y1148597D01*
X1780442Y1133083D01*
X1788042Y1117149D01*
X1794798Y1100839D01*
X1800690Y1084199D01*
X1805704Y1067272D01*
X1809825Y1050107D01*
X1813042Y1032749D01*
X1815347Y1015246D01*
X1816732Y997647D01*
X1817194Y980000D01*
X1816732Y962353D01*
X1815347Y944754D01*
X1813042Y927251D01*
X1809825Y909893D01*
X1805704Y892728D01*
X1800690Y875801D01*
X1794798Y859161D01*
X1788042Y842851D01*
X1780442Y826917D01*
X1772018Y811403D01*
X1762795Y796351D01*
X1752796Y781802D01*
X1742049Y767797D01*
X1730584Y754373D01*
X1718432Y741568D01*
X1705627Y729416D01*
X1692203Y717951D01*
X1678198Y707204D01*
X1663649Y697205D01*
X1648597Y687981D01*
X1633083Y679558D01*
X1617149Y671958D01*
X1600840Y665202D01*
X1584199Y659309D01*
X1567272Y654296D01*
X1550107Y650175D01*
X1532749Y646957D01*
X1515246Y644653D01*
X1497647Y643268D01*
X1480000Y642806D01*
X1462353Y643268D01*
X1444754Y644653D01*
X1427251Y646957D01*
X1409893Y650175D01*
X1392728Y654296D01*
X1375801Y659309D01*
X1359160Y665202D01*
X1342851Y671958D01*
X1326917Y679558D01*
X1311403Y687981D01*
X1296351Y697205D01*
X1281802Y707204D01*
X1267797Y717951D01*
X1254373Y729416D01*
X1241568Y741568D01*
X1229416Y754373D01*
X1217951Y767797D01*
X1207204Y781802D01*
X1197205Y796351D01*
X1187981Y811403D01*
X1179558Y826917D01*
X1171958Y842851D01*
X1165202Y859161D01*
X1159309Y875801D01*
X1154296Y892728D01*
X1150175Y909893D01*
X1146957Y927251D01*
X1144653Y944754D01*
X1143268Y962353D01*
X1142806Y980000D01*
X1143268Y997647D01*
X1144653Y1015246D01*
X1146957Y1032749D01*
X1150175Y1050107D01*
X1154296Y1067272D01*
X1159309Y1084199D01*
X1165202Y1100839D01*
X1171958Y1117149D01*
X1179558Y1133083D01*
X1187981Y1148597D01*
X1197205Y1163649D01*
X1207204Y1178198D01*
X1217951Y1192203D01*
X1229416Y1205627D01*
X1241568Y1218432D01*
X1254373Y1230584D01*
X1267797Y1242049D01*
X1281802Y1252796D01*
X1296351Y1262795D01*
X1311403Y1272019D01*
X1326917Y1280442D01*
X1342851Y1288042D01*
X1359160Y1294798D01*
X1375801Y1300690D01*
X1392728Y1305704D01*
X1409893Y1309825D01*
X1427251Y1313042D01*
X1444754Y1315347D01*
X1462353Y1316732D01*
X1480000Y1317194D01*
X1497647Y1316732D01*
D02*
G37*
%LPC*%
G36*
X1622332Y1261507D02*
X1621430Y1252934D01*
X1627865Y1252258D01*
X1628766Y1260831D01*
X1622332Y1261507D01*
D02*
G37*
G36*
X1427721Y1299559D02*
X1426517Y1299180D01*
X1425934Y1298060D01*
X1420456Y1235449D01*
X1420835Y1234245D01*
X1421955Y1233662D01*
X1434368Y1232576D01*
X1433941Y1227704D01*
X1439191Y1227245D01*
X1439761Y1233760D01*
X1441026Y1233649D01*
X1441137Y1234914D01*
X1447798Y1234331D01*
X1447931Y1234848D01*
X1452935D01*
X1454101Y1235331D01*
X1456553Y1237784D01*
X1456652Y1238023D01*
X1456850Y1238189D01*
X1456885Y1238584D01*
X1457037Y1238950D01*
X1456938Y1239189D01*
X1456960Y1239446D01*
X1456712Y1240234D01*
X1456651Y1241625D01*
X1457591Y1252368D01*
X1457892Y1253728D01*
X1458485Y1254866D01*
X1459352Y1255812D01*
X1460435Y1256502D01*
X1461658Y1256888D01*
X1462941Y1256944D01*
X1464194Y1256666D01*
X1465332Y1256074D01*
X1466279Y1255207D01*
X1466968Y1254124D01*
X1467354Y1252900D01*
X1467415Y1251509D01*
X1467180Y1248824D01*
X1467183Y1248816D01*
X1467178Y1248807D01*
X1467372Y1248215D01*
X1467560Y1247620D01*
X1467568Y1247616D01*
X1467570Y1247607D01*
X1467784Y1247358D01*
X1467281Y1241611D01*
X1472800Y1241128D01*
X1472689Y1239863D01*
X1473954Y1239753D01*
X1473232Y1231494D01*
X1477485Y1231122D01*
X1477574Y1232134D01*
X1482605Y1231694D01*
X1483569Y1230545D01*
X1483298Y1227441D01*
X1483298Y1227441D01*
X1483419Y1226336D01*
X1483953Y1225362D01*
X1485977Y1222950D01*
X1485284Y1221620D01*
X1477354Y1222314D01*
X1476492Y1212466D01*
X1475547Y1211766D01*
X1474904Y1211521D01*
X1474659Y1211604D01*
X1473198Y1211508D01*
X1472149Y1212581D01*
X1472150Y1212586D01*
X1464439Y1213261D01*
X1456728Y1213935D01*
X1456508Y1211412D01*
X1455880Y1210101D01*
X1445179Y1208692D01*
X1445129Y1208663D01*
X1445072Y1208675D01*
X1430463Y1205769D01*
X1430415Y1205737D01*
X1430358Y1205744D01*
X1415970Y1201889D01*
X1415925Y1201854D01*
X1415867Y1201858D01*
X1401762Y1197070D01*
X1401719Y1197032D01*
X1401661D01*
X1387900Y1191331D01*
X1387859Y1191291D01*
X1387802Y1191287D01*
X1374442Y1184699D01*
X1374404Y1184656D01*
X1374347Y1184648D01*
X1362657Y1177898D01*
X1361608Y1178039D01*
X1361007Y1178266D01*
X1357023Y1181605D01*
X1351485Y1174999D01*
X1357418Y1170027D01*
X1355786Y1168080D01*
X1349854Y1173052D01*
X1344317Y1166445D01*
Y1166445D01*
X1344292Y1165282D01*
X1341506Y1163144D01*
X1341489Y1163115D01*
X1341445Y1163056D01*
X1341367Y1163026D01*
X1340081Y1162685D01*
X1339570Y1162762D01*
X1337066Y1164852D01*
X1336280Y1165280D01*
X1335390Y1165374D01*
X1334945Y1165243D01*
X1325511Y1173067D01*
X1329320Y1177660D01*
X1318969Y1186244D01*
X1307639Y1172583D01*
X1317991Y1163998D01*
X1321575Y1168320D01*
X1330673Y1160775D01*
X1330649Y1160484D01*
X1330621Y1160433D01*
X1330527Y1159544D01*
X1330562Y1159425D01*
X1330552Y1159313D01*
X1329505Y1158058D01*
X1329305Y1158079D01*
X1328447Y1157826D01*
X1327914Y1157395D01*
X1326941Y1157784D01*
X1326080Y1157944D01*
X1325218Y1158113D01*
X1321332Y1158102D01*
X1319568Y1157747D01*
X1318814Y1157240D01*
X1318074Y1156743D01*
X1318074Y1156743D01*
X1316461Y1155121D01*
X1316354Y1154960D01*
X1316204Y1154840D01*
X1305548Y1142197D01*
X1302727Y1144575D01*
X1298468Y1139522D01*
X1273915Y1148659D01*
X1273387Y1150228D01*
X1272212Y1151997D01*
X1270620Y1153402D01*
X1268718Y1154346D01*
X1266637Y1154766D01*
X1264518Y1154633D01*
X1262505Y1153957D01*
X1260736Y1152782D01*
X1259332Y1151190D01*
X1258387Y1149288D01*
X1257967Y1147207D01*
X1258100Y1145088D01*
X1258777Y1143075D01*
X1259951Y1141306D01*
X1261544Y1139902D01*
X1263445Y1138957D01*
X1265527Y1138537D01*
X1267646Y1138670D01*
X1269658Y1139347D01*
X1270674Y1140021D01*
X1289879Y1132875D01*
X1290115Y1131187D01*
X1286319Y1126684D01*
X1293882Y1120310D01*
X1293064Y1119339D01*
X1294035Y1118521D01*
X1289046Y1112602D01*
X1291037Y1110925D01*
X1291944Y1109788D01*
X1287803Y1103590D01*
X1287792Y1103534D01*
X1287746Y1103499D01*
X1280298Y1090599D01*
X1280291Y1090542D01*
X1280247Y1090504D01*
X1273659Y1077145D01*
X1273656Y1077087D01*
X1273615Y1077046D01*
X1267915Y1063285D01*
Y1063227D01*
X1267877Y1063184D01*
X1263089Y1049079D01*
X1263092Y1049022D01*
X1263057Y1048976D01*
X1259202Y1034588D01*
X1259210Y1034531D01*
X1259178Y1034483D01*
X1256561Y1021327D01*
X1252461Y1020523D01*
X1254364Y1010817D01*
X1253118Y1010573D01*
X1253362Y1009327D01*
X1245767Y1007837D01*
X1247425Y999378D01*
X1252816Y1000435D01*
X1253942Y999445D01*
X1253656Y995074D01*
X1252404Y994383D01*
X1244108Y992736D01*
X1243281Y992394D01*
X1242648Y991761D01*
X1242470Y991333D01*
X1230456Y988912D01*
X1229278Y994762D01*
X1216095Y992105D01*
X1219600Y974707D01*
X1232783Y977364D01*
X1231674Y982867D01*
X1243261Y985202D01*
X1243472Y985000D01*
X1243494Y984947D01*
X1244127Y984314D01*
X1244240Y984267D01*
X1244322Y984189D01*
X1244640Y982586D01*
X1244498Y982444D01*
X1244155Y981617D01*
X1244155Y981374D01*
X1243740Y981173D01*
X1243515Y981003D01*
X1243075Y980821D01*
X1240930Y979175D01*
X1239284Y977030D01*
X1238249Y974532D01*
X1237896Y971851D01*
X1238089Y970392D01*
X1238086Y969880D01*
X1241185Y953841D01*
X1238298Y953283D01*
X1239307Y948064D01*
X1216726Y933546D01*
X1215461Y934015D01*
X1213347Y934213D01*
X1211253Y933857D01*
X1209324Y932972D01*
X1207689Y931617D01*
X1206460Y929885D01*
X1205722Y927894D01*
X1205524Y925780D01*
X1205880Y923687D01*
X1206765Y921757D01*
X1208120Y920122D01*
X1209852Y918894D01*
X1211842Y918155D01*
X1213957Y917957D01*
X1216050Y918313D01*
X1217980Y919199D01*
X1219615Y920554D01*
X1220843Y922285D01*
X1221581Y924276D01*
X1221723Y925791D01*
X1245277Y940935D01*
X1256657Y943134D01*
X1257296Y939926D01*
X1256459Y938681D01*
X1251633Y937748D01*
X1253101Y930149D01*
X1254570Y922549D01*
X1260964Y923785D01*
X1263057Y915971D01*
X1263092Y915925D01*
X1263089Y915867D01*
X1267877Y901762D01*
X1267915Y901719D01*
Y901661D01*
X1273615Y887900D01*
X1273655Y887859D01*
X1273659Y887802D01*
X1280247Y874442D01*
X1280291Y874404D01*
X1280298Y874347D01*
X1287746Y861448D01*
X1287792Y861412D01*
X1287803Y861356D01*
X1296078Y848971D01*
X1296126Y848939D01*
X1296141Y848883D01*
X1303011Y839930D01*
X1303172Y839837D01*
X1303257Y839673D01*
X1303701Y839532D01*
X1304104Y839299D01*
X1304284Y839347D01*
X1304460Y839291D01*
X1305809Y839406D01*
X1306172Y839041D01*
X1306703Y838117D01*
X1306406Y837740D01*
X1306273Y837268D01*
X1306211Y837142D01*
X1305102Y836438D01*
X1304665Y836260D01*
X1303589Y836825D01*
X1300580Y831097D01*
X1309335Y826498D01*
X1318822Y821515D01*
X1319291Y821586D01*
X1322624Y818253D01*
X1322489Y817312D01*
X1321928Y816615D01*
X1316998Y807175D01*
X1316746Y806316D01*
X1316842Y805426D01*
X1317202Y804769D01*
X1311632Y794030D01*
X1306125Y796887D01*
X1299933Y784949D01*
X1315688Y776777D01*
X1321880Y788715D01*
X1316690Y791407D01*
X1322167Y801966D01*
X1322683Y801815D01*
X1323573Y801911D01*
X1323750Y802008D01*
X1325242Y801229D01*
X1325263Y801028D01*
X1325693Y800243D01*
X1326390Y799682D01*
X1326478Y799636D01*
X1326337Y798499D01*
X1326369Y798065D01*
X1326270Y797317D01*
X1326597Y794832D01*
X1327557Y792516D01*
X1329082Y790528D01*
X1331071Y789002D01*
X1331258Y788925D01*
X1331385Y788821D01*
X1345826Y781185D01*
X1344101Y777922D01*
X1349164Y775244D01*
X1346044Y748791D01*
X1344804Y748050D01*
X1343325Y746527D01*
X1342290Y744672D01*
X1341771Y742614D01*
X1341802Y740491D01*
X1342381Y738448D01*
X1343470Y736625D01*
X1344993Y735146D01*
X1346848Y734111D01*
X1348906Y733592D01*
X1351030Y733623D01*
X1353072Y734203D01*
X1354895Y735291D01*
X1356374Y736814D01*
X1357409Y738669D01*
X1357928Y740727D01*
X1357897Y742850D01*
X1357318Y744893D01*
X1356229Y746716D01*
X1355206Y747709D01*
X1358613Y776598D01*
X1363287Y785437D01*
X1364728Y785852D01*
X1367550Y784223D01*
X1364564Y778576D01*
X1371406Y774958D01*
X1378248Y771340D01*
X1381197Y776916D01*
X1387802Y773659D01*
X1387859Y773656D01*
X1387900Y773615D01*
X1401661Y767915D01*
X1401719D01*
X1401762Y767877D01*
X1415867Y763089D01*
X1415925Y763092D01*
X1415970Y763057D01*
X1430358Y759202D01*
X1430415Y759210D01*
X1430463Y759178D01*
X1445072Y756272D01*
X1445129Y756283D01*
X1445179Y756254D01*
X1459947Y754310D01*
X1460002Y754325D01*
X1460054Y754299D01*
X1474918Y753325D01*
X1475317Y753461D01*
X1476700Y753228D01*
X1479109Y747224D01*
X1488288Y750906D01*
X1488761Y749727D01*
X1489940Y750200D01*
X1492822Y743017D01*
X1500822Y746226D01*
X1498246Y752647D01*
X1499045Y753916D01*
X1503949Y754238D01*
X1503978Y754083D01*
X1507966Y744208D01*
X1508457Y743460D01*
X1509196Y742956D01*
X1509930Y742803D01*
X1514492Y731600D01*
X1508746Y729260D01*
X1513818Y716805D01*
X1530256Y723499D01*
X1525184Y735954D01*
X1519769Y733749D01*
X1515283Y744765D01*
X1515733Y745060D01*
X1516237Y745800D01*
X1516278Y745997D01*
X1517839Y746627D01*
X1518005Y746514D01*
X1518881Y746331D01*
X1519760Y746498D01*
X1519853Y746535D01*
X1520627Y745691D01*
X1520776Y745581D01*
X1520921Y745393D01*
X1522909Y743867D01*
X1525225Y742908D01*
X1527710Y742581D01*
X1530195Y742908D01*
X1530854Y743181D01*
X1531267Y743257D01*
X1546445Y749298D01*
X1547810Y745869D01*
X1553132Y747987D01*
X1571246Y728456D01*
X1571005Y727032D01*
X1571205Y724918D01*
X1571946Y722928D01*
X1573176Y721197D01*
X1574812Y719844D01*
X1576743Y718961D01*
X1578837Y718607D01*
X1580951Y718808D01*
X1582941Y719548D01*
X1584671Y720779D01*
X1586024Y722415D01*
X1586908Y724346D01*
X1587261Y726439D01*
X1587061Y728553D01*
X1586320Y730543D01*
X1585090Y732273D01*
X1583454Y733626D01*
X1581523Y734510D01*
X1579429Y734864D01*
X1578010Y734729D01*
X1558229Y756057D01*
X1555078Y763976D01*
X1555706Y765338D01*
X1558638Y766333D01*
X1559299Y765095D01*
X1560583Y761870D01*
X1567774Y764732D01*
X1574965Y767594D01*
X1573715Y770735D01*
X1573272Y772051D01*
X1577046Y773615D01*
X1577087Y773655D01*
X1577145Y773659D01*
X1590504Y780247D01*
X1590542Y780291D01*
X1590599Y780298D01*
X1603499Y787746D01*
X1603534Y787792D01*
X1603591Y787803D01*
X1615975Y796078D01*
X1616008Y796126D01*
X1616063Y796141D01*
X1627880Y805209D01*
X1627909Y805259D01*
X1627964Y805277D01*
X1639163Y815098D01*
X1639188Y815150D01*
X1639241Y815172D01*
X1649774Y825705D01*
X1649796Y825758D01*
X1649848Y825784D01*
X1654341Y830907D01*
X1654395Y831067D01*
X1654530Y831171D01*
X1655947Y831240D01*
X1659116Y840649D01*
X1660319Y840244D01*
X1660725Y841447D01*
X1668060Y838977D01*
X1670811Y847146D01*
X1669362Y847634D01*
X1669361Y847636D01*
X1669093Y849307D01*
X1670669Y851666D01*
X1670692Y851780D01*
X1670779Y851857D01*
X1671801Y852667D01*
X1672345Y852821D01*
X1676983Y851271D01*
X1677871Y851159D01*
X1678734Y851394D01*
X1679327Y851853D01*
X1689804Y848385D01*
X1690477Y847045D01*
X1688861Y842162D01*
X1701628Y837936D01*
X1707205Y854785D01*
X1694439Y859011D01*
X1692601Y853460D01*
X1681309Y857199D01*
X1681377Y857732D01*
X1681141Y858596D01*
X1681018Y858755D01*
X1681552Y860351D01*
X1681746Y860404D01*
X1682453Y860952D01*
X1682897Y861729D01*
X1682928Y861824D01*
X1684073Y861865D01*
X1684508Y861967D01*
X1686218Y862192D01*
X1688534Y863151D01*
X1690522Y864677D01*
X1692048Y866666D01*
X1692572Y867931D01*
X1692831Y868380D01*
X1698088Y883846D01*
X1701583Y882659D01*
X1703426Y888082D01*
X1730040Y889184D01*
X1730968Y888076D01*
X1732706Y886857D01*
X1734700Y886128D01*
X1736815Y885941D01*
X1738907Y886307D01*
X1740832Y887203D01*
X1742460Y888566D01*
X1743680Y890304D01*
X1744408Y892298D01*
X1744595Y894413D01*
X1744229Y896505D01*
X1743334Y898430D01*
X1741971Y900058D01*
X1740233Y901278D01*
X1738238Y902006D01*
X1736123Y902193D01*
X1734032Y901827D01*
X1732106Y900931D01*
X1730478Y899568D01*
X1729659Y898402D01*
X1700594Y897198D01*
X1696889Y898457D01*
X1696270Y899824D01*
X1697032Y901661D01*
X1697443Y902003D01*
X1700191Y910089D01*
X1702725Y917544D01*
X1702359Y917726D01*
X1705744Y930358D01*
X1705737Y930415D01*
X1705769Y930463D01*
X1708675Y945072D01*
X1708663Y945129D01*
X1708692Y945179D01*
X1710636Y959947D01*
X1710621Y960003D01*
X1710647Y960054D01*
X1711621Y974918D01*
X1711603Y974972D01*
X1711625Y975025D01*
Y982473D01*
Y989921D01*
X1711603Y989974D01*
X1711621Y990029D01*
X1710647Y1004892D01*
X1710621Y1004944D01*
X1710636Y1004999D01*
X1708967Y1017676D01*
X1708875Y1017837D01*
X1708884Y1018022D01*
X1709762Y1019285D01*
X1709768Y1019289D01*
X1704494Y1027656D01*
X1705569Y1028333D01*
X1704892Y1029407D01*
X1711440Y1033534D01*
X1706843Y1040826D01*
X1705542Y1040006D01*
X1704146Y1040554D01*
X1703344Y1043544D01*
X1703264Y1043649D01*
X1703262Y1043780D01*
X1703243Y1045057D01*
X1703459Y1045620D01*
X1703484Y1045646D01*
X1707543Y1048218D01*
X1708191Y1048835D01*
X1708553Y1049653D01*
X1708571Y1050402D01*
X1718772Y1056905D01*
X1722106Y1051675D01*
X1733446Y1058904D01*
X1723905Y1073869D01*
X1712565Y1066640D01*
X1715708Y1061710D01*
X1705679Y1055315D01*
X1705307Y1055704D01*
X1704489Y1056067D01*
X1704289Y1056072D01*
X1703388Y1057494D01*
X1703469Y1057678D01*
X1703491Y1058572D01*
X1703169Y1059407D01*
X1703115Y1059492D01*
X1703807Y1060405D01*
X1703999Y1060800D01*
X1704462Y1061404D01*
X1705421Y1063720D01*
X1705748Y1066205D01*
X1705421Y1068690D01*
X1704462Y1071005D01*
X1704343Y1071160D01*
X1704286Y1071310D01*
X1695614Y1085153D01*
X1698741Y1087113D01*
X1695700Y1091967D01*
X1711653Y1113298D01*
X1713098Y1113318D01*
X1715142Y1113895D01*
X1716966Y1114982D01*
X1718447Y1116503D01*
X1719483Y1118356D01*
X1720005Y1120415D01*
X1719976Y1122538D01*
X1719399Y1124581D01*
X1718313Y1126405D01*
X1716791Y1127886D01*
X1714938Y1128923D01*
X1712880Y1129445D01*
X1710757Y1129416D01*
X1708713Y1128838D01*
X1706889Y1127752D01*
X1705408Y1126230D01*
X1704371Y1124377D01*
X1703850Y1122319D01*
X1703879Y1120196D01*
X1704266Y1118824D01*
X1686844Y1095529D01*
X1684057Y1093782D01*
X1682601Y1094144D01*
X1681033Y1096860D01*
X1682147Y1097703D01*
X1690161Y1102723D01*
X1686726Y1108206D01*
X1678345Y1102955D01*
X1676996Y1105108D01*
X1685378Y1110358D01*
X1681943Y1115841D01*
X1673964Y1110843D01*
X1672729Y1110197D01*
X1668868Y1115975D01*
X1668820Y1116008D01*
X1668805Y1116063D01*
X1659738Y1127880D01*
X1659688Y1127909D01*
X1659669Y1127964D01*
X1649848Y1139163D01*
X1649796Y1139188D01*
X1649774Y1139241D01*
X1639241Y1149774D01*
X1639188Y1149796D01*
X1639163Y1149848D01*
X1627964Y1159669D01*
X1627909Y1159688D01*
X1627880Y1159737D01*
X1616063Y1168805D01*
X1616008Y1168820D01*
X1615975Y1168868D01*
X1609653Y1173092D01*
X1609443Y1173134D01*
X1609283Y1173277D01*
X1609080Y1173266D01*
X1608203Y1173710D01*
X1607690Y1174608D01*
X1613472Y1241473D01*
X1614629Y1242428D01*
X1617737Y1242101D01*
X1618772Y1251937D01*
X1619805Y1261773D01*
X1615269Y1262250D01*
X1616920Y1281352D01*
X1616732Y1281946D01*
X1616541Y1282555D01*
X1616540Y1282555D01*
X1616539Y1282556D01*
X1615933Y1282871D01*
X1615421Y1283138D01*
X1615419Y1283138D01*
X1615419Y1283138D01*
X1615419Y1283138D01*
X1559022Y1288072D01*
X1557818Y1287692D01*
X1557235Y1286572D01*
X1556129Y1273933D01*
X1555818Y1272867D01*
X1555227Y1272130D01*
X1554399Y1271676D01*
X1553295Y1271555D01*
X1548638Y1271962D01*
X1547572Y1272273D01*
X1546836Y1272864D01*
X1546381Y1273692D01*
X1546260Y1274796D01*
X1547366Y1287436D01*
X1546987Y1288640D01*
X1545867Y1289223D01*
X1472951Y1295602D01*
X1471747Y1295222D01*
X1471164Y1294102D01*
X1470058Y1281463D01*
X1469748Y1280397D01*
X1469156Y1279661D01*
X1468328Y1279206D01*
X1467225Y1279085D01*
X1462567Y1279493D01*
X1461501Y1279803D01*
X1460765Y1280395D01*
X1460310Y1281223D01*
X1460190Y1282327D01*
X1461295Y1294966D01*
X1460916Y1296170D01*
X1459796Y1296753D01*
X1427721Y1299559D01*
D02*
G37*
G36*
X1621165Y1250408D02*
X1620264Y1241836D01*
X1626698Y1241159D01*
X1627599Y1249732D01*
X1621165Y1250408D01*
D02*
G37*
G36*
X1467059Y1239081D02*
X1466448Y1232087D01*
X1470701Y1231715D01*
X1471313Y1238709D01*
X1467059Y1239081D01*
D02*
G37*
G36*
X1442181Y1232273D02*
X1441721Y1227023D01*
X1446971Y1226564D01*
X1447431Y1231814D01*
X1442181Y1232273D01*
D02*
G37*
G36*
X1457701Y1225053D02*
X1456950Y1216466D01*
X1463395Y1215902D01*
X1464146Y1224489D01*
X1457701Y1225053D01*
D02*
G37*
G36*
X1466677Y1224268D02*
X1465925Y1215680D01*
X1472371Y1215117D01*
X1473122Y1223704D01*
X1466677Y1224268D01*
D02*
G37*
G36*
X1304364Y1199676D02*
X1298861Y1193041D01*
X1303842Y1188911D01*
X1309344Y1195546D01*
X1304364Y1199676D01*
D02*
G37*
G36*
X1311299Y1193924D02*
X1305797Y1187289D01*
X1310777Y1183159D01*
X1316279Y1189794D01*
X1311299Y1193924D01*
D02*
G37*
G36*
X1297240Y1191086D02*
X1291737Y1184450D01*
X1296717Y1180320D01*
X1302220Y1186955D01*
X1297240Y1191086D01*
D02*
G37*
G36*
X1304175Y1185334D02*
X1298673Y1178699D01*
X1303653Y1174569D01*
X1309155Y1181204D01*
X1304175Y1185334D01*
D02*
G37*
G36*
X1278508Y1174468D02*
X1273342Y1168611D01*
X1279199Y1163445D01*
X1284365Y1169302D01*
X1278508Y1174468D01*
D02*
G37*
G36*
X1286270Y1167622D02*
X1281104Y1161764D01*
X1286961Y1156598D01*
X1292127Y1162455D01*
X1286270Y1167622D01*
D02*
G37*
G36*
X1271661Y1166706D02*
X1266495Y1160848D01*
X1272352Y1155682D01*
X1277518Y1161540D01*
X1271661Y1166706D01*
D02*
G37*
G36*
X1279423Y1159859D02*
X1274257Y1154002D01*
X1280114Y1148836D01*
X1285281Y1154693D01*
X1279423Y1159859D01*
D02*
G37*
G36*
X1284683Y1124741D02*
X1280513Y1119794D01*
X1287104Y1114239D01*
X1291274Y1119186D01*
X1284683Y1124741D01*
D02*
G37*
G36*
X1725316Y1116631D02*
X1718606Y1112634D01*
X1722603Y1105924D01*
X1729313Y1109921D01*
X1725316Y1116631D01*
D02*
G37*
G36*
X1716424Y1111335D02*
X1709714Y1107338D01*
X1713710Y1100628D01*
X1720421Y1104624D01*
X1716424Y1111335D01*
D02*
G37*
G36*
X1730612Y1107738D02*
X1723902Y1103742D01*
X1727899Y1097032D01*
X1734609Y1101028D01*
X1730612Y1107738D01*
D02*
G37*
G36*
X1721720Y1102442D02*
X1715010Y1098446D01*
X1719006Y1091736D01*
X1725717Y1095732D01*
X1721720Y1102442D01*
D02*
G37*
G36*
X1740067Y1085379D02*
X1734612Y1081901D01*
X1739246Y1074632D01*
X1744701Y1078110D01*
X1740067Y1085379D01*
D02*
G37*
G36*
X1732470Y1080535D02*
X1727014Y1077057D01*
X1731648Y1069788D01*
X1737104Y1073267D01*
X1732470Y1080535D01*
D02*
G37*
G36*
X1746067Y1075969D02*
X1740611Y1072490D01*
X1745245Y1065222D01*
X1750701Y1068700D01*
X1746067Y1075969D01*
D02*
G37*
G36*
X1738470Y1071125D02*
X1733014Y1067647D01*
X1737648Y1060378D01*
X1743104Y1063857D01*
X1738470Y1071125D01*
D02*
G37*
G36*
X1712794Y1031385D02*
X1707321Y1027935D01*
X1711917Y1020643D01*
X1717390Y1024093D01*
X1712794Y1031385D01*
D02*
G37*
G36*
X1249968Y1020034D02*
X1243619Y1018789D01*
X1245278Y1010330D01*
X1251627Y1011575D01*
X1249968Y1020034D01*
D02*
G37*
G36*
X1211643Y992244D02*
X1205301Y990966D01*
X1207003Y982516D01*
X1213346Y983794D01*
X1211643Y992244D01*
D02*
G37*
G36*
X1202811Y990465D02*
X1196468Y989187D01*
X1198171Y980737D01*
X1204513Y982015D01*
X1202811Y990465D01*
D02*
G37*
G36*
X1213848Y981304D02*
X1207505Y980026D01*
X1209208Y971576D01*
X1215550Y972854D01*
X1213848Y981304D01*
D02*
G37*
G36*
X1205015Y979525D02*
X1198673Y978247D01*
X1200375Y969797D01*
X1206718Y971075D01*
X1205015Y979525D01*
D02*
G37*
G36*
X1217729Y956275D02*
X1210030Y954966D01*
X1211338Y947267D01*
X1219038Y948576D01*
X1217729Y956275D01*
D02*
G37*
G36*
X1207525Y954541D02*
X1199826Y953232D01*
X1201135Y945532D01*
X1208834Y946841D01*
X1207525Y954541D01*
D02*
G37*
G36*
X1219464Y946072D02*
X1211764Y944763D01*
X1213073Y937063D01*
X1220773Y938372D01*
X1219464Y946072D01*
D02*
G37*
G36*
X1209260Y944337D02*
X1201561Y943028D01*
X1202870Y935329D01*
X1210569Y936637D01*
X1209260Y944337D01*
D02*
G37*
G36*
X1249139Y937266D02*
X1240675Y935630D01*
X1241903Y929278D01*
X1250366Y930914D01*
X1249139Y937266D01*
D02*
G37*
G36*
X1250848Y928420D02*
X1242385Y926784D01*
X1243613Y920432D01*
X1252076Y922067D01*
X1250848Y928420D01*
D02*
G37*
G36*
X1705087Y916600D02*
X1703005Y910475D01*
X1711167Y907701D01*
X1713248Y913827D01*
X1705087Y916600D01*
D02*
G37*
G36*
X1702188Y908070D02*
X1700105Y901944D01*
X1708267Y899170D01*
X1710349Y905296D01*
X1702188Y908070D01*
D02*
G37*
G36*
X1724194Y886924D02*
X1721515Y879588D01*
X1728851Y876909D01*
X1731530Y884246D01*
X1724194Y886924D01*
D02*
G37*
G36*
X1733916Y883374D02*
X1731237Y876038D01*
X1738574Y873359D01*
X1741252Y880695D01*
X1733916Y883374D01*
D02*
G37*
G36*
X1720644Y877202D02*
X1717965Y869866D01*
X1725301Y867187D01*
X1727980Y874523D01*
X1720644Y877202D01*
D02*
G37*
G36*
X1730366Y873652D02*
X1727687Y866316D01*
X1735023Y863637D01*
X1737702Y870973D01*
X1730366Y873652D01*
D02*
G37*
G36*
X1711641Y854386D02*
X1708932Y846203D01*
X1715074Y844170D01*
X1717783Y852353D01*
X1711641Y854386D01*
D02*
G37*
G36*
X1720194Y851555D02*
X1717485Y843372D01*
X1723627Y841338D01*
X1726337Y849521D01*
X1720194Y851555D01*
D02*
G37*
G36*
X1708134Y843792D02*
X1705425Y835609D01*
X1711567Y833575D01*
X1714276Y841758D01*
X1708134Y843792D01*
D02*
G37*
G36*
X1716687Y840960D02*
X1713978Y832777D01*
X1720120Y830744D01*
X1722829Y838927D01*
X1716687Y840960D01*
D02*
G37*
G36*
X1661118Y838635D02*
X1658366Y830465D01*
X1664498Y828400D01*
X1667249Y836570D01*
X1661118Y838635D01*
D02*
G37*
G36*
X1299398Y828848D02*
X1296390Y823121D01*
X1304021Y819112D01*
X1307030Y824840D01*
X1299398Y828848D01*
D02*
G37*
G36*
X1309278Y823659D02*
X1306270Y817931D01*
X1313901Y813922D01*
X1316910Y819650D01*
X1309278Y823659D01*
D02*
G37*
G36*
X1297035Y781568D02*
X1294056Y775825D01*
X1301708Y771856D01*
X1304687Y777599D01*
X1297035Y781568D01*
D02*
G37*
G36*
X1306942Y776430D02*
X1303963Y770686D01*
X1311615Y766717D01*
X1314594Y772461D01*
X1306942Y776430D01*
D02*
G37*
G36*
X1363377Y776331D02*
X1359347Y768711D01*
X1365067Y765686D01*
X1369096Y773306D01*
X1363377Y776331D01*
D02*
G37*
G36*
X1292887Y773570D02*
X1289908Y767827D01*
X1297560Y763858D01*
X1300539Y769601D01*
X1292887Y773570D01*
D02*
G37*
G36*
X1371342Y772119D02*
X1367312Y764499D01*
X1373032Y761474D01*
X1377061Y769095D01*
X1371342Y772119D01*
D02*
G37*
G36*
X1302793Y768432D02*
X1299814Y762688D01*
X1307466Y758719D01*
X1310445Y764463D01*
X1302793Y768432D01*
D02*
G37*
G36*
X1575905Y765234D02*
X1569893Y762842D01*
X1573081Y754833D01*
X1579092Y757225D01*
X1575905Y765234D01*
D02*
G37*
G36*
X1328879Y763769D02*
X1325074Y756948D01*
X1331894Y753143D01*
X1335699Y759963D01*
X1328879Y763769D01*
D02*
G37*
G36*
X1567533Y761902D02*
X1561522Y759510D01*
X1564709Y751501D01*
X1570721Y753893D01*
X1567533Y761902D01*
D02*
G37*
G36*
X1337917Y758726D02*
X1334112Y751906D01*
X1340932Y748100D01*
X1344737Y754921D01*
X1337917Y758726D01*
D02*
G37*
G36*
X1323836Y754730D02*
X1320031Y747910D01*
X1326851Y744105D01*
X1330656Y750925D01*
X1323836Y754730D01*
D02*
G37*
G36*
X1332874Y749688D02*
X1329069Y742867D01*
X1335889Y739062D01*
X1339695Y745882D01*
X1332874Y749688D01*
D02*
G37*
G36*
X1488055Y748076D02*
X1480055Y744866D01*
X1482464Y738861D01*
X1490464Y742071D01*
X1488055Y748076D01*
D02*
G37*
G36*
X1565732Y731437D02*
X1558412Y728713D01*
X1561136Y721393D01*
X1568456Y724117D01*
X1565732Y731437D01*
D02*
G37*
G36*
X1556032Y727827D02*
X1548712Y725103D01*
X1551436Y717783D01*
X1558756Y720507D01*
X1556032Y727827D01*
D02*
G37*
G36*
X1569342Y721737D02*
X1562022Y719013D01*
X1564746Y711693D01*
X1572066Y714417D01*
X1569342Y721737D01*
D02*
G37*
G36*
X1532832Y719866D02*
X1524848Y716615D01*
X1527288Y710623D01*
X1535272Y713874D01*
X1532832Y719866D01*
D02*
G37*
G36*
X1559642Y718127D02*
X1552322Y715403D01*
X1555046Y708083D01*
X1562366Y710807D01*
X1559642Y718127D01*
D02*
G37*
G36*
X1522496Y715657D02*
X1514512Y712406D01*
X1516953Y706414D01*
X1524936Y709665D01*
X1522496Y715657D01*
D02*
G37*
G36*
X1536230Y711522D02*
X1528246Y708270D01*
X1530686Y702278D01*
X1538670Y705529D01*
X1536230Y711522D01*
D02*
G37*
G36*
X1525894Y707313D02*
X1517910Y704062D01*
X1520351Y698069D01*
X1528334Y701320D01*
X1525894Y707313D01*
D02*
G37*
%LPD*%
G36*
X1578142Y1248606D02*
X1579106Y1247457D01*
X1577015Y1223561D01*
X1576683Y1222172D01*
X1575398Y1222284D01*
X1570237Y1222736D01*
X1569375Y1212884D01*
X1568513Y1203031D01*
X1572598Y1202674D01*
X1572891Y1202394D01*
X1573197Y1201632D01*
X1572757Y1200918D01*
X1568182Y1201371D01*
X1567207Y1191529D01*
X1565944Y1191655D01*
X1565818Y1190391D01*
X1558116Y1191153D01*
X1557269Y1182598D01*
X1557266Y1182576D01*
X1557131Y1181082D01*
X1556217Y1172543D01*
X1563913Y1171719D01*
X1563777Y1170456D01*
X1565040Y1170321D01*
X1563987Y1160487D01*
X1569360Y1159912D01*
X1570117Y1158801D01*
X1570202Y1158313D01*
X1569986Y1157913D01*
X1566507Y1158191D01*
X1565986Y1151672D01*
X1564720Y1151773D01*
X1564619Y1150507D01*
X1558100Y1151028D01*
X1558037Y1150238D01*
X1557922Y1150132D01*
X1557906Y1150119D01*
X1556499Y1149620D01*
X1556086Y1149946D01*
X1556011Y1149967D01*
X1555948Y1150012D01*
X1553534Y1151098D01*
X1554252Y1158999D01*
X1540859Y1160215D01*
X1539357Y1143670D01*
X1537877Y1142299D01*
X1535236Y1142542D01*
X1533924Y1143024D01*
X1535528Y1160699D01*
X1526048Y1161559D01*
X1522595Y1165194D01*
X1522884Y1168497D01*
X1524195Y1168382D01*
X1524829Y1175624D01*
X1508850Y1177022D01*
X1509071Y1179553D01*
X1525050Y1178155D01*
X1525684Y1185397D01*
X1524372Y1185512D01*
X1524535Y1187366D01*
X1526892Y1187160D01*
X1527857Y1186011D01*
X1527268Y1179288D01*
X1527268Y1179288D01*
X1527389Y1178183D01*
X1527924Y1177209D01*
X1532592Y1171645D01*
X1532592Y1171645D01*
X1533459Y1170950D01*
X1534526Y1170639D01*
X1534526Y1170639D01*
X1537027Y1170420D01*
X1537980Y1169261D01*
X1537454Y1164349D01*
X1550826Y1162918D01*
X1552715Y1180565D01*
X1539343Y1181996D01*
X1538701Y1175993D01*
X1536198Y1176211D01*
X1533047Y1179967D01*
X1533743Y1187926D01*
X1533743Y1187926D01*
X1533743Y1187926D01*
X1533743Y1187926D01*
X1533702Y1188308D01*
X1533622Y1189031D01*
X1533622Y1189031D01*
X1533622Y1189031D01*
X1533319Y1189584D01*
X1533088Y1190005D01*
X1533088Y1190005D01*
X1533088Y1190006D01*
X1533088Y1190006D01*
X1531736Y1191617D01*
X1531736Y1191618D01*
X1531735Y1191618D01*
X1531271Y1191991D01*
X1530869Y1192313D01*
X1530869Y1192313D01*
X1530869Y1192313D01*
X1530417Y1192445D01*
X1529802Y1192624D01*
X1529801Y1192624D01*
X1529801Y1192624D01*
X1527157Y1192856D01*
X1526261Y1193945D01*
X1527346Y1194848D01*
X1534949Y1194049D01*
X1536078Y1192655D01*
X1536078Y1192655D01*
X1536933Y1191944D01*
X1537994Y1191614D01*
X1540267Y1191375D01*
X1539669Y1185339D01*
X1553052Y1184014D01*
X1554801Y1201675D01*
X1541418Y1203001D01*
X1540933Y1198104D01*
X1540908Y1198083D01*
X1539379Y1197631D01*
X1538634Y1198551D01*
X1538634Y1198552D01*
X1537779Y1199262D01*
X1536718Y1199592D01*
X1523327Y1200999D01*
X1523290Y1201045D01*
X1522805Y1202562D01*
X1523136Y1202975D01*
X1523447Y1204042D01*
Y1204043D01*
X1523651Y1206382D01*
X1524381Y1206684D01*
X1525654Y1207957D01*
X1525879Y1208502D01*
X1527649Y1208854D01*
X1529113Y1207390D01*
X1529113Y1207390D01*
X1530038Y1206772D01*
X1531128Y1206555D01*
X1531128Y1206555D01*
X1541747D01*
X1541909Y1206379D01*
Y1206379D01*
X1555306Y1205207D01*
X1556853Y1222887D01*
X1543456Y1224059D01*
X1542423Y1212253D01*
X1532308D01*
X1526233Y1218328D01*
X1525308Y1218946D01*
X1524218Y1219162D01*
X1524218Y1219162D01*
X1520061D01*
X1519813Y1219410D01*
X1519453Y1219651D01*
X1519114Y1219923D01*
X1518994Y1219958D01*
X1518889Y1220028D01*
X1518490Y1220107D01*
X1519131Y1227434D01*
X1520280Y1228398D01*
X1522736Y1228183D01*
X1522880Y1227726D01*
X1522931Y1227250D01*
X1523607Y1226010D01*
X1523740Y1225902D01*
X1523792Y1225739D01*
X1524217Y1225518D01*
X1524590Y1225217D01*
X1524760Y1225235D01*
X1524911Y1225156D01*
X1526714Y1224998D01*
X1527092Y1225118D01*
X1527489D01*
X1528139Y1225387D01*
X1529283D01*
X1529400Y1225338D01*
X1529648D01*
X1529867Y1225221D01*
X1530256Y1225338D01*
X1530663D01*
X1530838Y1225514D01*
X1531076Y1225586D01*
X1532012Y1226352D01*
X1534458Y1226138D01*
X1535180Y1234396D01*
X1536445Y1234286D01*
X1536556Y1235551D01*
X1542075Y1235068D01*
X1542687Y1242061D01*
X1539553Y1242335D01*
X1538832Y1243650D01*
X1538963Y1243903D01*
X1539129Y1245794D01*
X1538558Y1247604D01*
X1537338Y1249057D01*
X1537144Y1249158D01*
X1536139Y1249791D01*
X1536140Y1251185D01*
X1537268Y1252182D01*
X1578142Y1248606D01*
D02*
G37*
G36*
X1475654Y1209441D02*
X1476177Y1208869D01*
X1475807Y1204633D01*
X1489203Y1203461D01*
X1489729Y1209464D01*
X1491830Y1209280D01*
X1491847Y1209240D01*
X1493119Y1207967D01*
X1494782Y1207278D01*
X1496582D01*
X1498245Y1207967D01*
X1499323Y1209045D01*
X1500788Y1209018D01*
X1500885Y1209001D01*
X1501389Y1207670D01*
X1501156Y1207379D01*
X1500794Y1206928D01*
X1500794Y1206928D01*
X1500793Y1206927D01*
X1500634Y1206379D01*
X1500483Y1205861D01*
X1500483Y1205860D01*
X1500483Y1205860D01*
X1500483Y1205860D01*
X1499876Y1198932D01*
X1496016Y1199269D01*
X1495670Y1195320D01*
X1493278Y1195529D01*
X1493278Y1195530D01*
X1492173Y1195409D01*
X1492173Y1195409D01*
X1491198Y1194874D01*
X1491198Y1194874D01*
X1489968Y1193841D01*
X1488528Y1194591D01*
X1488932Y1199217D01*
X1475536Y1200389D01*
X1473989Y1182708D01*
X1487386Y1181536D01*
X1487831Y1186625D01*
X1488980Y1187589D01*
X1489978Y1187502D01*
X1489978Y1187502D01*
X1491083Y1187623D01*
X1492057Y1188157D01*
X1493655Y1189498D01*
X1494603Y1189158D01*
X1495081Y1188588D01*
X1494948Y1187066D01*
X1494650Y1187092D01*
X1493338Y1172102D01*
X1493636Y1172076D01*
X1493478Y1170266D01*
X1492329Y1169301D01*
X1480327Y1170352D01*
X1477559Y1173651D01*
X1477559Y1173651D01*
X1477042Y1174067D01*
X1476693Y1174347D01*
X1476692Y1174347D01*
X1476692Y1174347D01*
X1476268Y1174471D01*
X1475625Y1174658D01*
X1475625Y1174658D01*
X1475625Y1174658D01*
X1468977Y1175239D01*
X1468013Y1176388D01*
X1468258Y1179192D01*
X1450578Y1180739D01*
X1449406Y1167342D01*
X1467086Y1165795D01*
X1467424Y1169656D01*
X1473953Y1169085D01*
X1476721Y1165786D01*
X1476721Y1165786D01*
X1477328Y1165298D01*
X1477588Y1165090D01*
X1477588Y1165090D01*
X1477588Y1165090D01*
X1478075Y1164948D01*
X1478655Y1164779D01*
X1478655Y1164779D01*
X1492889Y1163533D01*
X1492569Y1159872D01*
X1491285Y1159334D01*
X1479276Y1160385D01*
X1479275Y1160385D01*
X1479275Y1160385D01*
X1479275Y1160385D01*
X1478832Y1160337D01*
X1478170Y1160264D01*
X1478170Y1160264D01*
X1478170Y1160264D01*
X1477590Y1159946D01*
X1477196Y1159730D01*
X1475584Y1158377D01*
X1475584Y1158377D01*
X1475583Y1158377D01*
X1475257Y1157971D01*
X1474888Y1157510D01*
X1474888Y1157510D01*
X1474888Y1157510D01*
X1474776Y1157128D01*
X1474577Y1156443D01*
X1474577Y1156443D01*
X1474577Y1156443D01*
X1474287Y1153128D01*
X1473138Y1152164D01*
X1468455Y1152574D01*
X1467017Y1153340D01*
X1467721Y1161388D01*
X1459134Y1162139D01*
X1458459Y1154428D01*
X1457784Y1146718D01*
X1466108Y1145990D01*
X1467547Y1145223D01*
X1467020Y1139200D01*
X1484700Y1137653D01*
X1485061Y1136314D01*
X1484822Y1133578D01*
X1483214Y1132411D01*
X1466554Y1133868D01*
X1465382Y1120472D01*
X1470327Y1120039D01*
X1471291Y1118890D01*
X1469476Y1098142D01*
X1469476Y1098142D01*
X1469543Y1097531D01*
X1469597Y1097037D01*
X1469597Y1097037D01*
Y1097037D01*
X1469868Y1096543D01*
X1470132Y1096062D01*
X1470132Y1096062D01*
X1470132Y1096062D01*
X1471484Y1094450D01*
X1471484Y1094450D01*
X1472351Y1093754D01*
X1472351Y1093754D01*
X1473418Y1093443D01*
X1473419D01*
X1474796Y1093323D01*
X1475760Y1092174D01*
X1475634Y1090739D01*
X1475733Y1089839D01*
X1476168Y1089046D01*
X1476873Y1088480D01*
X1477742Y1088227D01*
X1482225Y1087835D01*
X1483124Y1087933D01*
X1483917Y1088368D01*
X1484483Y1089074D01*
X1484736Y1089942D01*
X1485756Y1101598D01*
X1485658Y1102497D01*
X1485223Y1103290D01*
X1484517Y1103856D01*
X1483649Y1104109D01*
X1479166Y1104502D01*
X1478266Y1104403D01*
X1477473Y1103968D01*
X1477179Y1103601D01*
X1475720Y1104144D01*
X1477060Y1119450D01*
X1483062Y1118925D01*
X1483423Y1117586D01*
X1482531Y1107385D01*
X1482910Y1106181D01*
X1484030Y1105598D01*
X1506765Y1103609D01*
X1506788Y1103578D01*
X1506722Y1102490D01*
X1507679Y1102406D01*
X1507690Y1102394D01*
X1512600Y1100014D01*
X1513188Y1099979D01*
X1513774Y1099913D01*
X1518989Y1101408D01*
X1518999Y1101416D01*
X1519919Y1101335D01*
Y1101335D01*
X1521462Y1102323D01*
X1527044Y1101834D01*
X1527565Y1101998D01*
X1528100Y1102103D01*
X1528206Y1102173D01*
X1529637Y1102568D01*
X1530193Y1102274D01*
X1530744Y1101980D01*
X1530749Y1101981D01*
X1530753Y1101979D01*
X1598131Y1095687D01*
X1598134Y1095688D01*
X1598137Y1095686D01*
X1598731Y1095872D01*
X1599337Y1096060D01*
X1599339Y1096062D01*
X1599342Y1096063D01*
X1600493Y1097025D01*
X1600495Y1097027D01*
X1600497Y1097028D01*
X1600786Y1097584D01*
X1601079Y1098143D01*
X1601078Y1098146D01*
X1601079Y1098149D01*
X1607385Y1171071D01*
X1608737Y1171721D01*
X1615059Y1167496D01*
X1626876Y1158429D01*
X1638075Y1148608D01*
X1648608Y1138075D01*
X1658429Y1126876D01*
X1667496Y1115059D01*
X1671357Y1109281D01*
X1671043Y1107814D01*
X1666581Y1105019D01*
X1673720Y1093622D01*
X1678149Y1096397D01*
X1679605Y1096035D01*
X1681743Y1092333D01*
X1676561Y1089087D01*
X1677128Y1088182D01*
X1676785Y1086722D01*
X1672376Y1084021D01*
X1670917Y1084371D01*
X1670587Y1084910D01*
X1655454Y1075638D01*
X1659124Y1069647D01*
X1658160Y1068498D01*
X1653988Y1070137D01*
X1650476Y1076064D01*
X1640972Y1070432D01*
X1646603Y1060927D01*
X1652170Y1064226D01*
X1660811Y1060832D01*
X1660830Y1060788D01*
Y1060788D01*
X1662982Y1060360D01*
X1663096Y1060382D01*
X1664595Y1060444D01*
X1684234Y1060824D01*
X1685214Y1059278D01*
X1685831Y1058630D01*
X1686649Y1058267D01*
X1686850Y1058262D01*
X1687751Y1056840D01*
X1687670Y1056657D01*
X1687648Y1055762D01*
X1687970Y1054927D01*
X1690298Y1051253D01*
X1690916Y1050605D01*
X1691734Y1050243D01*
X1691934Y1050238D01*
X1692835Y1048815D01*
X1692754Y1048632D01*
X1692732Y1047737D01*
X1693054Y1046902D01*
X1695382Y1043228D01*
X1695999Y1042580D01*
X1696817Y1042217D01*
X1697712Y1042196D01*
X1698546Y1042518D01*
X1700354Y1043663D01*
X1701751Y1043118D01*
X1703287Y1037384D01*
X1695149Y1032255D01*
X1704612Y1017240D01*
X1705974Y1018098D01*
X1707332Y1017461D01*
X1709001Y1004784D01*
X1709975Y989921D01*
Y982473D01*
Y975025D01*
X1709001Y960162D01*
X1707057Y945394D01*
X1704151Y930785D01*
X1700766Y918152D01*
X1699443Y917446D01*
X1695156Y918903D01*
X1690828Y906170D01*
X1696204Y904343D01*
X1695508Y902293D01*
X1694286Y899342D01*
X1689106Y901102D01*
X1688763Y900092D01*
X1687414Y899436D01*
X1682535Y901149D01*
X1681885Y902501D01*
X1682095Y903097D01*
X1665349Y908976D01*
X1663021Y902346D01*
X1661521Y902368D01*
X1660157Y906638D01*
X1662535Y913103D01*
X1652166Y916917D01*
X1648818Y907813D01*
X1647169Y907675D01*
X1646438Y908953D01*
X1649988Y918367D01*
X1633382Y924629D01*
X1628637Y912046D01*
X1640022Y907753D01*
X1650423Y889558D01*
X1650182Y888976D01*
X1649474Y888428D01*
X1649031Y887651D01*
X1647652Y883525D01*
X1647539Y882638D01*
X1647645Y882252D01*
X1646652Y881150D01*
X1646528Y881080D01*
X1644274Y881970D01*
X1643772Y883182D01*
X1642499Y884455D01*
X1640836Y885144D01*
X1639036D01*
X1637374Y884455D01*
X1636101Y883182D01*
X1635412Y881519D01*
Y879720D01*
X1636101Y878057D01*
X1637374Y876784D01*
X1639036Y876096D01*
X1640836D01*
X1642204Y876662D01*
X1644990Y875562D01*
X1644640Y874514D01*
X1644528Y873627D01*
X1644763Y872764D01*
X1643604Y871811D01*
X1642670Y871087D01*
X1642025Y869959D01*
X1641739Y869101D01*
X1649946Y866358D01*
X1658154Y863615D01*
X1658441Y864473D01*
X1658604Y865761D01*
X1658262Y867014D01*
X1658647Y868908D01*
X1659091Y869685D01*
X1660470Y873811D01*
X1660582Y874698D01*
X1660347Y875561D01*
X1660223Y875721D01*
X1660756Y877318D01*
X1660952Y877371D01*
X1661659Y877919D01*
X1662102Y878696D01*
X1663481Y882822D01*
X1663594Y883709D01*
X1663358Y884572D01*
X1662810Y885279D01*
X1662033Y885723D01*
X1659048Y886721D01*
X1658907Y887140D01*
X1658907Y887140D01*
X1648827Y904775D01*
X1649858Y905994D01*
X1654426Y904314D01*
X1657262Y895439D01*
X1657296Y895376D01*
X1657379Y894959D01*
X1658246Y893662D01*
X1658371Y893436D01*
X1672037Y877305D01*
X1671457Y875569D01*
X1671344Y874681D01*
X1671580Y873818D01*
X1671703Y873659D01*
X1671170Y872062D01*
X1670976Y872009D01*
X1670269Y871461D01*
X1669825Y870684D01*
X1668446Y866559D01*
X1668333Y865671D01*
X1668569Y864808D01*
X1668692Y864649D01*
X1668159Y863052D01*
X1667964Y862999D01*
X1667257Y862451D01*
X1666814Y861674D01*
X1665435Y857549D01*
X1665322Y856661D01*
X1665558Y855798D01*
X1666106Y855091D01*
X1666883Y854647D01*
X1668812Y854002D01*
X1669298Y852583D01*
X1667496Y849887D01*
X1665852Y847744D01*
X1656779Y850800D01*
X1651114Y833980D01*
X1652710Y833443D01*
X1653100Y831994D01*
X1648608Y826871D01*
X1638075Y816339D01*
X1626876Y806517D01*
X1615059Y797450D01*
X1602674Y789174D01*
X1589774Y781727D01*
X1576415Y775139D01*
X1572641Y773575D01*
X1571259Y774159D01*
X1571210Y774283D01*
X1558715Y769311D01*
X1558736Y769257D01*
X1558107Y767895D01*
X1554064Y766523D01*
X1553742Y767331D01*
X1552751Y766937D01*
X1551376Y767537D01*
X1549512Y772360D01*
X1550119Y773732D01*
X1550709Y773960D01*
X1544311Y790514D01*
X1537757Y787981D01*
X1536799Y789136D01*
X1539163Y792946D01*
X1545625Y795334D01*
X1541795Y805697D01*
X1531432Y801867D01*
X1533675Y795797D01*
X1528764Y787880D01*
X1528678Y787650D01*
X1528280Y787055D01*
X1528082Y786060D01*
X1527961Y785736D01*
X1524560Y764868D01*
X1522863Y764183D01*
X1522115Y763693D01*
X1521611Y762953D01*
X1521570Y762756D01*
X1520009Y762126D01*
X1519843Y762239D01*
X1518967Y762421D01*
X1518088Y762254D01*
X1514054Y760626D01*
X1513306Y760135D01*
X1512802Y759396D01*
X1512761Y759199D01*
X1511200Y758568D01*
X1511034Y758682D01*
X1510158Y758864D01*
X1509279Y758697D01*
X1505246Y757068D01*
X1504497Y756578D01*
X1504033Y755896D01*
X1496057Y755373D01*
X1494494Y759272D01*
X1483773Y754971D01*
X1476155D01*
X1475866Y756471D01*
X1476789Y756842D01*
X1483464Y759519D01*
X1481055Y765524D01*
X1473055Y762315D01*
X1474970Y757541D01*
X1475399Y756471D01*
X1475025Y754971D01*
X1460162Y755945D01*
X1445394Y757890D01*
X1430785Y760796D01*
X1416397Y764651D01*
X1402293Y769439D01*
X1388531Y775139D01*
X1375172Y781727D01*
X1362721Y788915D01*
X1365370Y793806D01*
X1366808Y794234D01*
X1367364Y793933D01*
X1375816Y809539D01*
X1369638Y812885D01*
X1369896Y814363D01*
X1374328Y815034D01*
X1380337Y811664D01*
X1385741Y821300D01*
X1377409Y825974D01*
X1376179Y826663D01*
X1375839Y828132D01*
X1380022Y829548D01*
X1380327Y829429D01*
X1387954Y825348D01*
X1396328Y840997D01*
X1384471Y847342D01*
X1378524Y836227D01*
X1378329Y836024D01*
X1378103Y835441D01*
X1378081Y835401D01*
X1357903Y828570D01*
X1357339Y829023D01*
X1353484Y831037D01*
X1352625Y831289D01*
X1352228Y831246D01*
X1351296Y832401D01*
X1351248Y832533D01*
X1352466Y834591D01*
X1352735D01*
X1354397Y835280D01*
X1355670Y836552D01*
X1356359Y838215D01*
Y840015D01*
X1355670Y841677D01*
X1354397Y842950D01*
X1352735Y843639D01*
X1350935D01*
X1349272Y842950D01*
X1348000Y841677D01*
X1347311Y840015D01*
Y838215D01*
X1347591Y837539D01*
X1346042Y834924D01*
X1345063Y835436D01*
X1344205Y835687D01*
X1343315Y835591D01*
X1342557Y836886D01*
X1341990Y837924D01*
X1340978Y838738D01*
X1340176Y839157D01*
X1336170Y831486D01*
X1332163Y823815D01*
X1332965Y823396D01*
X1334212Y823031D01*
X1335503Y823171D01*
X1336883Y823277D01*
X1337313Y822492D01*
X1338010Y821931D01*
X1341865Y819917D01*
X1342724Y819665D01*
X1343613Y819762D01*
X1343790Y819858D01*
X1345282Y819078D01*
X1345304Y818878D01*
X1345733Y818093D01*
X1346430Y817532D01*
X1350286Y815518D01*
X1351144Y815266D01*
X1352034Y815363D01*
X1352819Y815792D01*
X1353380Y816489D01*
X1355943Y821396D01*
X1375557Y828037D01*
X1376060Y826623D01*
X1375389Y825426D01*
X1372940Y821061D01*
X1363728Y819665D01*
X1363396Y819544D01*
X1362345Y819335D01*
X1361785Y818961D01*
X1361576Y818886D01*
X1343486Y807942D01*
X1341864Y808789D01*
X1341005Y809040D01*
X1340116Y808944D01*
X1339939Y808848D01*
X1338447Y809627D01*
X1338425Y809827D01*
X1337996Y810612D01*
X1337299Y811173D01*
X1333443Y813187D01*
X1332585Y813439D01*
X1331695Y813343D01*
X1331428Y813197D01*
X1330026Y814025D01*
X1330004Y814226D01*
X1329575Y815011D01*
X1328878Y815572D01*
X1326283Y816927D01*
X1318447Y824762D01*
X1319728Y827200D01*
X1312910Y830781D01*
X1307702Y836720D01*
X1308646Y837918D01*
X1312763Y835755D01*
X1315772Y841483D01*
X1308141Y845492D01*
X1305814Y841062D01*
X1304320Y840934D01*
X1297450Y849887D01*
X1289174Y862272D01*
X1281727Y875172D01*
X1275139Y888531D01*
X1269439Y902293D01*
X1264651Y916397D01*
X1260796Y930785D01*
X1258237Y943648D01*
X1258076Y944481D01*
X1258922Y945720D01*
X1265051Y946841D01*
X1265354Y945190D01*
X1282812Y948383D01*
X1281548Y955295D01*
X1282861Y956020D01*
X1286162Y952987D01*
X1287301Y946192D01*
X1298197Y948020D01*
X1296370Y958916D01*
X1289988Y957845D01*
X1283135Y964142D01*
X1283134Y964156D01*
Y964156D01*
X1281428Y965296D01*
X1281174Y965347D01*
X1279765Y965850D01*
X1261306Y972576D01*
X1260949Y974371D01*
X1260607Y975198D01*
X1259975Y975831D01*
X1259789Y975908D01*
X1259461Y977559D01*
X1259604Y977701D01*
X1259946Y978528D01*
X1259947Y979423D01*
X1259099Y983689D01*
X1258757Y984516D01*
X1258125Y985149D01*
X1257939Y985226D01*
X1257612Y986877D01*
X1257754Y987019D01*
X1258096Y987846D01*
X1258097Y988741D01*
X1257250Y993007D01*
X1256908Y993834D01*
X1256275Y994467D01*
X1255449Y994810D01*
X1255302Y994966D01*
X1255766Y1002049D01*
X1261423Y1003159D01*
X1258050Y1020360D01*
X1260796Y1034161D01*
X1264651Y1048549D01*
X1269439Y1062654D01*
X1275139Y1076415D01*
X1281727Y1089774D01*
X1289174Y1102674D01*
X1293315Y1108871D01*
X1294800Y1109081D01*
X1295516Y1108479D01*
X1304182Y1118762D01*
X1301819Y1120753D01*
X1304420Y1124142D01*
X1305911Y1124304D01*
X1307631Y1122854D01*
X1308862Y1124314D01*
X1313625Y1120300D01*
X1313745Y1118805D01*
X1313435Y1118444D01*
X1326891Y1106872D01*
X1331473Y1112199D01*
X1332862Y1111633D01*
X1332578Y1107158D01*
X1328009Y1102002D01*
X1336278Y1094676D01*
X1342763Y1101995D01*
X1343085Y1102358D01*
X1343846Y1102058D01*
Y1102058D01*
X1343846D01*
X1344543Y1100847D01*
X1344463Y1098022D01*
X1338323Y1090642D01*
X1351966Y1079291D01*
X1360567Y1089629D01*
X1350170Y1098280D01*
X1350844Y1121978D01*
X1352640Y1124132D01*
X1353068Y1124918D01*
X1353163Y1125807D01*
X1354577Y1126315D01*
X1355341Y1126346D01*
X1356479Y1125214D01*
X1356360Y1124928D01*
Y1123129D01*
X1357049Y1121466D01*
X1358321Y1120193D01*
X1359984Y1119504D01*
X1361784D01*
X1363447Y1120193D01*
X1364719Y1121466D01*
X1365408Y1123129D01*
Y1124928D01*
X1364719Y1126591D01*
X1363447Y1127864D01*
X1361784Y1128552D01*
X1361202D01*
X1358966Y1130776D01*
X1359328Y1132376D01*
X1360558Y1133529D01*
X1360675Y1133568D01*
X1361809Y1133902D01*
X1362820Y1134718D01*
X1363400Y1135413D01*
X1356754Y1140956D01*
X1350109Y1146499D01*
X1349529Y1145804D01*
X1348908Y1144664D01*
X1348782Y1143488D01*
X1348580Y1142001D01*
X1347721Y1141749D01*
X1347025Y1141187D01*
X1344239Y1137846D01*
X1343811Y1137060D01*
X1343716Y1136171D01*
X1343773Y1135978D01*
X1342694Y1134685D01*
X1342495Y1134706D01*
X1341636Y1134454D01*
X1340940Y1133892D01*
X1338154Y1130551D01*
X1337726Y1129765D01*
X1337631Y1128876D01*
X1337884Y1128017D01*
X1338446Y1127321D01*
X1345137Y1121740D01*
X1344657Y1104837D01*
X1343837Y1103674D01*
X1343837Y1103674D01*
X1343837D01*
D01*
X1343114Y1103379D01*
X1342725Y1103724D01*
X1338761Y1107236D01*
X1339352Y1116535D01*
X1339349Y1116558D01*
X1339418Y1116906D01*
X1339062Y1118694D01*
X1339048Y1118804D01*
X1332193Y1138804D01*
X1333365Y1140210D01*
X1333794Y1140995D01*
X1333888Y1141885D01*
X1333831Y1142078D01*
X1334910Y1143371D01*
X1335110Y1143349D01*
X1335969Y1143602D01*
X1336665Y1144164D01*
X1339451Y1147505D01*
X1339879Y1148290D01*
X1339974Y1149180D01*
X1339917Y1149373D01*
X1340996Y1150666D01*
X1341195Y1150645D01*
X1342054Y1150898D01*
X1342750Y1151460D01*
X1345536Y1154800D01*
X1345964Y1155586D01*
X1346059Y1156475D01*
X1345806Y1157334D01*
X1345244Y1158030D01*
X1342479Y1160336D01*
X1342510Y1161835D01*
X1347150Y1165396D01*
X1356055Y1157933D01*
X1367455Y1171536D01*
X1363351Y1174976D01*
X1363481Y1176470D01*
X1375172Y1183220D01*
X1388531Y1189808D01*
X1402293Y1195508D01*
X1416397Y1200296D01*
X1430785Y1204151D01*
X1445394Y1207057D01*
X1456095Y1208466D01*
X1457179Y1207428D01*
X1457078Y1206272D01*
X1460792Y1205947D01*
Y1202789D01*
X1459686Y1201775D01*
X1456807Y1202027D01*
X1455260Y1184347D01*
X1468657Y1183175D01*
X1470204Y1200855D01*
X1466490Y1201180D01*
Y1204338D01*
X1467595Y1205351D01*
X1470475Y1205100D01*
X1470877Y1209703D01*
X1474767Y1209958D01*
X1475654Y1209441D01*
D02*
G37*
G36*
X1459652Y1295110D02*
X1458532Y1282308D01*
X1458706Y1280717D01*
X1459476Y1279314D01*
X1460725Y1278312D01*
X1462262Y1277864D01*
X1467243Y1277428D01*
X1468834Y1277602D01*
X1470237Y1278372D01*
X1471239Y1279621D01*
X1471687Y1281158D01*
X1472807Y1293959D01*
X1545723Y1287579D01*
X1544603Y1274778D01*
X1544777Y1273187D01*
X1545547Y1271783D01*
X1546796Y1270781D01*
X1548333Y1270333D01*
X1553313Y1269898D01*
X1554905Y1270072D01*
X1556308Y1270842D01*
X1557310Y1272090D01*
X1557758Y1273627D01*
X1558878Y1286429D01*
X1615277Y1281494D01*
X1599436Y1098291D01*
X1598284Y1097329D01*
X1530907Y1103621D01*
X1529956Y1104781D01*
X1531510Y1119570D01*
X1503620Y1122048D01*
X1505414Y1142553D01*
X1506565Y1143515D01*
X1557774Y1138817D01*
X1558111Y1138421D01*
X1557922Y1136049D01*
X1557425Y1131958D01*
X1557578Y1131755D01*
X1558844Y1131654D01*
X1563825Y1131256D01*
X1570206Y1130555D01*
X1571174Y1137867D01*
X1572967Y1158363D01*
X1574362Y1174302D01*
X1580986Y1250013D01*
X1534662Y1254066D01*
X1534311Y1250051D01*
X1533765Y1250099D01*
X1531955Y1249528D01*
X1530501Y1248308D01*
X1529625Y1246625D01*
X1529460Y1244735D01*
X1530030Y1242925D01*
X1531250Y1241471D01*
X1532477Y1240833D01*
X1531349Y1227940D01*
X1530031Y1226862D01*
X1529611Y1227037D01*
X1527811D01*
X1526858Y1226642D01*
X1525055Y1226799D01*
X1524379Y1228039D01*
X1525647Y1242532D01*
X1525647D01*
X1524716Y1243641D01*
X1525697Y1254850D01*
X1486347Y1258293D01*
X1485366Y1247076D01*
X1481973Y1247373D01*
X1481251Y1248688D01*
X1481383Y1248941D01*
X1481548Y1250831D01*
X1480978Y1252641D01*
X1479758Y1254095D01*
X1478075Y1254971D01*
X1476184Y1255136D01*
X1474375Y1254566D01*
X1472921Y1253346D01*
X1472045Y1251663D01*
X1471879Y1249772D01*
X1472213Y1248712D01*
X1472202Y1248664D01*
X1472032Y1248280D01*
X1471243Y1247451D01*
X1469810Y1247528D01*
X1468823Y1248680D01*
X1469068Y1251473D01*
X1468993Y1253189D01*
X1468476Y1254827D01*
X1467553Y1256276D01*
X1466287Y1257437D01*
X1464763Y1258230D01*
X1463086Y1258601D01*
X1461370Y1258527D01*
X1459731Y1258010D01*
X1458283Y1257087D01*
X1457122Y1255820D01*
X1456329Y1254297D01*
X1455957Y1252620D01*
X1454998Y1241662D01*
X1455073Y1239945D01*
X1455387Y1238950D01*
X1452935Y1236498D01*
X1447931D01*
X1446918Y1237604D01*
X1447011Y1238671D01*
X1436005Y1239633D01*
X1435523Y1234130D01*
X1422099Y1235305D01*
X1427577Y1297916D01*
X1459652Y1295110D01*
D02*
G37*
G36*
X1501539Y1142685D02*
X1502466Y1141561D01*
X1502468Y1141558D01*
X1502570Y1140451D01*
X1502679Y1140244D01*
X1500959Y1120588D01*
X1528628Y1118167D01*
X1529583Y1117010D01*
X1528315Y1104954D01*
X1528317Y1104949D01*
X1528314Y1104944D01*
X1528333Y1104883D01*
X1527631Y1103772D01*
X1527188Y1103478D01*
X1517957Y1104285D01*
X1518535Y1102993D01*
X1513319Y1101498D01*
X1508409Y1103879D01*
X1509215Y1105050D01*
X1484174Y1107241D01*
X1487291Y1142867D01*
X1488440Y1143831D01*
X1501539Y1142685D01*
D02*
G37*
%LPC*%
G36*
X1537600Y1232910D02*
X1536988Y1225916D01*
X1541241Y1225544D01*
X1541853Y1232538D01*
X1537600Y1232910D01*
D02*
G37*
G36*
X1561262Y1223521D02*
X1560510Y1214934D01*
X1566956Y1214370D01*
X1567707Y1222957D01*
X1561262Y1223521D01*
D02*
G37*
G36*
X1560289Y1212404D02*
X1559538Y1203816D01*
X1565983Y1203252D01*
X1566734Y1211840D01*
X1560289Y1212404D01*
D02*
G37*
G36*
X1559216Y1202259D02*
X1558366Y1193681D01*
X1564805Y1193044D01*
X1565654Y1201621D01*
X1559216Y1202259D01*
D02*
G37*
G36*
X1555946Y1170017D02*
X1555029Y1161446D01*
X1561462Y1160757D01*
X1562379Y1169328D01*
X1555946Y1170017D01*
D02*
G37*
G36*
X1558722Y1158813D02*
X1558302Y1153560D01*
X1563556Y1153140D01*
X1563976Y1158393D01*
X1558722Y1158813D01*
D02*
G37*
G36*
X1371431Y1169529D02*
X1365894Y1162922D01*
X1370853Y1158766D01*
X1376390Y1165373D01*
X1371431Y1169529D01*
D02*
G37*
G36*
X1448016Y1163112D02*
X1447452Y1156666D01*
X1456039Y1155915D01*
X1456603Y1162360D01*
X1448016Y1163112D01*
D02*
G37*
G36*
X1378336Y1163741D02*
X1372799Y1157135D01*
X1377758Y1152979D01*
X1383295Y1159585D01*
X1378336Y1163741D01*
D02*
G37*
G36*
X1364262Y1160976D02*
X1358725Y1154369D01*
X1363684Y1150213D01*
X1369221Y1156820D01*
X1364262Y1160976D01*
D02*
G37*
G36*
X1447231Y1154136D02*
X1446667Y1147691D01*
X1455254Y1146939D01*
X1455818Y1153385D01*
X1447231Y1154136D01*
D02*
G37*
G36*
X1371168Y1155188D02*
X1365631Y1148582D01*
X1370589Y1144426D01*
X1376126Y1151032D01*
X1371168Y1155188D01*
D02*
G37*
G36*
X1354572Y1150328D02*
X1353326Y1149961D01*
X1352315Y1149145D01*
X1351736Y1148450D01*
X1357406Y1143720D01*
X1360118Y1146971D01*
X1357004Y1149569D01*
X1355863Y1150190D01*
X1354572Y1150328D01*
D02*
G37*
G36*
X1362068Y1145344D02*
X1359357Y1142093D01*
X1365027Y1137363D01*
X1365606Y1138058D01*
X1366228Y1139199D01*
X1366366Y1140490D01*
X1365998Y1141736D01*
X1365182Y1142747D01*
X1362068Y1145344D01*
D02*
G37*
G36*
X1660766Y1100941D02*
X1645633Y1091669D01*
X1647280Y1088980D01*
X1644921Y1087535D01*
X1643465Y1087896D01*
X1642830Y1088969D01*
X1633325Y1083337D01*
X1638957Y1073832D01*
X1648462Y1079464D01*
X1647154Y1081671D01*
X1650501Y1083722D01*
X1652658Y1080202D01*
X1667791Y1089474D01*
X1660766Y1100941D01*
D02*
G37*
G36*
X1309946Y1114386D02*
X1301177Y1104190D01*
X1314633Y1092617D01*
X1316723Y1095048D01*
X1318821Y1093244D01*
X1318922Y1091747D01*
X1318061Y1090776D01*
X1326330Y1083449D01*
X1333657Y1091718D01*
X1325388Y1099044D01*
X1323721Y1097163D01*
X1320744Y1099723D01*
X1323402Y1102813D01*
X1309946Y1114386D01*
D02*
G37*
G36*
X1521102Y1080411D02*
X1520799Y1076949D01*
X1518798Y1077124D01*
X1518781Y1077164D01*
X1517509Y1078437D01*
X1515846Y1079125D01*
X1514046D01*
X1512383Y1078437D01*
X1511111Y1077164D01*
X1510422Y1075501D01*
Y1073701D01*
X1511111Y1072039D01*
X1512383Y1070766D01*
X1514046Y1070077D01*
X1515846D01*
X1517509Y1070766D01*
X1517868Y1071126D01*
X1519086Y1071058D01*
X1520173Y1069793D01*
X1519930Y1067014D01*
X1537610Y1065467D01*
X1538782Y1078864D01*
X1521102Y1080411D01*
D02*
G37*
G36*
X1627800Y1082016D02*
X1612960Y1072281D01*
X1615607Y1068246D01*
X1613688Y1066987D01*
X1613195Y1067191D01*
X1611395D01*
X1609733Y1066503D01*
X1608460Y1065230D01*
X1607771Y1063567D01*
Y1061767D01*
X1608460Y1060105D01*
X1609733Y1058832D01*
X1611395Y1058143D01*
X1613195D01*
X1614858Y1058832D01*
X1616131Y1060105D01*
X1616819Y1061767D01*
Y1062228D01*
X1618732Y1063482D01*
X1620335Y1061037D01*
X1635176Y1070771D01*
X1627800Y1082016D01*
D02*
G37*
G36*
X1334899Y1086528D02*
X1326298Y1076190D01*
X1339941Y1064839D01*
X1341804Y1067078D01*
X1342966Y1066111D01*
Y1065153D01*
X1343655Y1063490D01*
X1344928Y1062218D01*
X1346590Y1061529D01*
X1348390D01*
X1350053Y1062218D01*
X1351326Y1063490D01*
X1352014Y1065153D01*
Y1066953D01*
X1351326Y1068615D01*
X1350053Y1069888D01*
X1348390Y1070577D01*
X1346666D01*
X1345633Y1071680D01*
X1348542Y1075177D01*
X1334899Y1086528D01*
D02*
G37*
G36*
X1638111Y1066295D02*
X1623271Y1056561D01*
X1630647Y1045316D01*
X1641187Y1052230D01*
X1641454Y1052315D01*
X1641933Y1052719D01*
X1642056Y1052800D01*
X1661567Y1049819D01*
X1661683Y1049519D01*
X1664011Y1045845D01*
X1664628Y1045197D01*
X1664993Y1045035D01*
X1665222Y1043569D01*
X1665197Y1043429D01*
X1663063Y1042232D01*
X1662291Y1042551D01*
X1660491D01*
X1658829Y1041862D01*
X1657556Y1040590D01*
X1656867Y1038927D01*
Y1037127D01*
X1657556Y1035465D01*
X1658829Y1034192D01*
X1660491Y1033503D01*
X1662291D01*
X1663954Y1034192D01*
X1665227Y1035465D01*
X1665915Y1037127D01*
Y1037299D01*
X1668504Y1038752D01*
X1669095Y1037819D01*
X1669712Y1037171D01*
X1670530Y1036809D01*
X1670538Y1035309D01*
X1670509Y1034126D01*
X1670977Y1032915D01*
X1671461Y1032150D01*
X1678771Y1036782D01*
X1686082Y1041413D01*
X1685597Y1042178D01*
X1684701Y1043118D01*
X1683514Y1043644D01*
X1682288Y1045139D01*
X1681966Y1045974D01*
X1679638Y1049648D01*
X1679021Y1050296D01*
X1678203Y1050658D01*
X1678001Y1050663D01*
X1677100Y1052085D01*
X1677182Y1052270D01*
X1677204Y1053164D01*
X1676881Y1053999D01*
X1674553Y1057673D01*
X1673936Y1058321D01*
X1673118Y1058684D01*
X1672224Y1058705D01*
X1671389Y1058383D01*
X1666522Y1055300D01*
X1642997Y1058894D01*
X1642856Y1059062D01*
X1638111Y1066295D01*
D02*
G37*
G36*
X1687441Y1039268D02*
X1681203Y1035316D01*
X1683470Y1031739D01*
X1686895Y1033910D01*
X1687835Y1034805D01*
X1688361Y1035993D01*
X1688393Y1037291D01*
X1687925Y1038503D01*
X1687441Y1039268D01*
D02*
G37*
G36*
X1679058Y1033956D02*
X1672820Y1030005D01*
X1673305Y1029240D01*
X1674201Y1028299D01*
X1675388Y1027773D01*
X1676687Y1027742D01*
X1677898Y1028210D01*
X1681324Y1030380D01*
X1679058Y1033956D01*
D02*
G37*
G36*
X1690939Y1030802D02*
X1685465Y1027353D01*
X1690061Y1020060D01*
X1695535Y1023510D01*
X1690939Y1030802D01*
D02*
G37*
G36*
X1277258Y1025386D02*
X1270909Y1024141D01*
X1272568Y1015682D01*
X1278917Y1016927D01*
X1277258Y1025386D01*
D02*
G37*
G36*
X1683316Y1025998D02*
X1677843Y1022548D01*
X1682439Y1015256D01*
X1687913Y1018706D01*
X1683316Y1025998D01*
D02*
G37*
G36*
X1268417Y1023652D02*
X1262067Y1022407D01*
X1263726Y1013948D01*
X1270075Y1015193D01*
X1268417Y1023652D01*
D02*
G37*
G36*
X1696889Y1021361D02*
X1691416Y1017911D01*
X1696012Y1010619D01*
X1701486Y1014069D01*
X1696889Y1021361D01*
D02*
G37*
G36*
X1689267Y1016557D02*
X1683793Y1013107D01*
X1688390Y1005815D01*
X1693863Y1009265D01*
X1689267Y1016557D01*
D02*
G37*
G36*
X1279406Y1014434D02*
X1273057Y1013189D01*
X1274715Y1004730D01*
X1281064Y1005975D01*
X1279406Y1014434D01*
D02*
G37*
G36*
X1270564Y1012700D02*
X1264215Y1011455D01*
X1265874Y1002997D01*
X1272223Y1004241D01*
X1270564Y1012700D01*
D02*
G37*
G36*
X1278972Y1000714D02*
X1274994Y999925D01*
X1275819Y995772D01*
X1283061Y997210D01*
X1282885Y998097D01*
X1282388Y999297D01*
X1281470Y1000216D01*
X1280271Y1000714D01*
X1278972Y1000714D01*
D02*
G37*
G36*
X1272503Y999430D02*
X1268525Y998640D01*
X1267325Y998144D01*
X1266406Y997226D01*
X1265909Y996026D01*
X1265909Y994727D01*
X1266085Y993839D01*
X1273327Y995277D01*
X1272503Y999430D01*
D02*
G37*
G36*
X1283556Y994718D02*
X1275068Y993033D01*
X1266579Y991348D01*
X1266756Y990460D01*
X1267252Y989260D01*
X1268088Y988423D01*
X1269118Y987331D01*
X1268775Y986505D01*
X1268774Y985610D01*
X1269622Y981343D01*
X1269964Y980517D01*
X1270596Y979884D01*
X1270782Y979807D01*
X1271110Y978155D01*
X1270967Y978013D01*
X1270625Y977187D01*
X1270624Y976292D01*
X1271471Y972025D01*
X1271814Y971199D01*
X1272446Y970566D01*
X1273272Y970223D01*
X1274167Y970223D01*
X1282556Y971888D01*
X1299756Y959536D01*
X1301943Y948137D01*
X1319373Y951482D01*
X1316839Y964689D01*
X1306039Y962616D01*
X1286019Y976993D01*
X1285569Y979259D01*
X1285227Y980086D01*
X1284945Y980368D01*
X1285260Y981818D01*
X1285334Y981939D01*
X1287752Y982286D01*
X1288268Y981771D01*
X1289930Y981082D01*
X1291730D01*
X1293393Y981771D01*
X1294666Y983044D01*
X1295354Y984706D01*
Y986506D01*
X1294666Y988169D01*
X1293393Y989441D01*
X1291730Y990130D01*
X1289930D01*
X1288268Y989441D01*
X1286995Y988169D01*
X1286891Y987919D01*
X1283934Y987494D01*
X1283719Y988577D01*
X1283377Y989404D01*
X1282744Y990037D01*
X1283279Y991439D01*
X1283732Y992532D01*
X1283732Y993830D01*
X1283556Y994718D01*
D02*
G37*
G36*
X1328564Y946542D02*
X1326764D01*
X1325101Y945854D01*
X1323829Y944581D01*
X1323650Y944149D01*
X1320882Y943618D01*
X1320382Y946226D01*
X1302952Y942881D01*
X1305486Y929674D01*
X1322916Y933019D01*
X1321956Y938022D01*
X1324730Y938555D01*
X1325101Y938183D01*
X1326764Y937494D01*
X1328564D01*
X1330226Y938183D01*
X1331499Y939456D01*
X1332188Y941118D01*
Y942918D01*
X1331499Y944581D01*
X1330226Y945854D01*
X1328564Y946542D01*
D02*
G37*
G36*
X1298851Y944122D02*
X1287955Y942295D01*
X1288404Y939622D01*
X1284534Y938973D01*
X1283775Y943119D01*
X1266317Y939925D01*
X1268737Y926697D01*
X1286195Y929890D01*
X1285836Y931855D01*
X1286697Y933083D01*
X1289424Y933540D01*
X1289783Y931399D01*
X1300679Y933226D01*
X1298851Y944122D01*
D02*
G37*
G36*
X1635448Y943113D02*
X1633648D01*
X1631985Y942424D01*
X1630713Y941152D01*
X1630024Y939489D01*
Y937689D01*
X1630713Y936026D01*
X1631985Y934754D01*
X1633648Y934065D01*
X1635336D01*
X1635464Y934046D01*
X1636490Y932873D01*
X1635270Y929638D01*
X1651877Y923376D01*
X1656622Y935959D01*
X1640015Y942221D01*
X1639800Y941651D01*
X1639302Y941476D01*
X1638111Y941424D01*
X1637110Y942424D01*
X1635448Y943113D01*
D02*
G37*
G36*
X1657343Y930994D02*
X1653530Y920625D01*
X1663899Y916812D01*
X1664785Y919221D01*
X1668489Y917921D01*
X1667122Y914026D01*
X1683868Y908147D01*
X1688322Y920836D01*
X1671576Y926715D01*
X1670531Y923739D01*
X1667922Y924655D01*
X1667282Y926012D01*
X1667712Y927182D01*
X1657343Y930994D01*
D02*
G37*
G36*
X1640934Y866692D02*
X1640647Y865833D01*
X1640483Y864545D01*
X1640825Y863292D01*
X1641621Y862265D01*
X1642749Y861621D01*
X1646595Y860335D01*
X1647937Y864351D01*
X1640934Y866692D01*
D02*
G37*
G36*
X1650346Y863546D02*
X1649004Y859530D01*
X1652850Y858245D01*
X1654138Y858082D01*
X1655391Y858424D01*
X1656418Y859219D01*
X1657062Y860347D01*
X1657349Y861206D01*
X1650346Y863546D01*
D02*
G37*
G36*
X1638324Y858088D02*
X1635573Y849919D01*
X1641704Y847854D01*
X1644456Y856023D01*
X1638324Y858088D01*
D02*
G37*
G36*
X1646863Y855212D02*
X1644111Y847043D01*
X1650243Y844978D01*
X1652994Y853147D01*
X1646863Y855212D01*
D02*
G37*
G36*
X1312331Y853468D02*
X1309322Y847740D01*
X1316953Y843732D01*
X1319962Y849460D01*
X1312331Y853468D01*
D02*
G37*
G36*
X1322211Y848278D02*
X1319202Y842550D01*
X1326833Y838542D01*
X1329842Y844270D01*
X1322211Y848278D01*
D02*
G37*
G36*
X1634762Y847512D02*
X1632010Y839343D01*
X1638142Y837278D01*
X1640893Y845447D01*
X1634762Y847512D01*
D02*
G37*
G36*
X1410078Y845527D02*
X1408278D01*
X1406615Y844838D01*
X1405342Y843566D01*
X1404654Y841903D01*
Y840103D01*
X1405008Y839249D01*
X1403803Y836997D01*
X1401047Y838472D01*
X1392673Y822824D01*
X1404530Y816479D01*
X1412904Y832127D01*
X1408826Y834309D01*
X1409988Y836479D01*
X1410078D01*
X1411740Y837168D01*
X1413013Y838441D01*
X1413702Y840103D01*
Y841903D01*
X1413013Y843566D01*
X1411740Y844838D01*
X1410078Y845527D01*
D02*
G37*
G36*
X1643300Y844636D02*
X1640549Y836467D01*
X1646681Y834402D01*
X1649432Y842571D01*
X1643300Y844636D01*
D02*
G37*
G36*
X1335876Y841117D02*
X1334585Y840977D01*
X1333445Y840354D01*
X1332631Y839342D01*
X1330753Y835748D01*
X1334506Y833788D01*
X1337925Y840333D01*
X1337122Y840752D01*
X1335876Y841117D01*
D02*
G37*
G36*
X1318021Y840302D02*
X1315012Y834574D01*
X1322643Y830565D01*
X1325652Y836293D01*
X1318021Y840302D01*
D02*
G37*
G36*
X1329577Y833496D02*
X1327700Y829902D01*
X1327335Y828656D01*
X1327475Y827364D01*
X1328098Y826225D01*
X1329110Y825410D01*
X1329912Y824991D01*
X1333330Y831536D01*
X1329577Y833496D01*
D02*
G37*
G36*
X1542635Y839084D02*
X1540836D01*
X1539173Y838396D01*
X1537900Y837123D01*
X1537211Y835460D01*
Y833661D01*
X1537900Y831998D01*
X1539173Y830725D01*
X1539315Y830666D01*
X1539282Y829057D01*
X1537943Y828566D01*
X1544052Y811902D01*
X1556678Y816532D01*
X1550569Y833195D01*
X1547175Y831951D01*
X1546041Y833133D01*
X1546259Y833661D01*
Y835460D01*
X1545571Y837123D01*
X1544298Y838396D01*
X1542635Y839084D01*
D02*
G37*
G36*
X1389189Y819366D02*
X1383784Y809730D01*
X1386021Y808475D01*
X1384152Y805024D01*
X1380522Y806990D01*
X1372069Y791384D01*
X1383894Y784979D01*
X1392347Y800585D01*
X1389574Y802087D01*
X1390891Y804519D01*
X1392332Y804936D01*
X1393420Y804326D01*
X1398824Y813962D01*
X1389189Y819366D01*
D02*
G37*
G36*
X1532918Y826723D02*
X1520292Y822094D01*
X1525054Y809107D01*
X1517909Y789164D01*
X1517497Y789086D01*
X1513463Y787457D01*
X1512715Y786966D01*
X1512490Y786636D01*
X1511007Y786675D01*
X1510874Y786725D01*
X1510110Y788951D01*
X1510769Y790540D01*
Y792340D01*
X1510080Y794003D01*
X1508808Y795275D01*
X1507145Y795964D01*
X1505345D01*
X1503682Y795275D01*
X1502410Y794003D01*
X1501721Y792340D01*
Y790540D01*
X1502410Y788877D01*
X1503682Y787605D01*
X1504692Y787186D01*
X1505678Y784312D01*
X1504655Y783899D01*
X1503907Y783408D01*
X1503403Y782669D01*
X1501926Y782932D01*
X1500768Y783173D01*
X1499491Y782931D01*
X1498652Y782592D01*
X1501893Y774568D01*
X1505134Y766544D01*
X1505973Y766883D01*
X1507059Y767595D01*
X1507725Y768572D01*
X1508606Y769787D01*
X1509482Y769605D01*
X1510361Y769771D01*
X1514394Y771400D01*
X1515142Y771891D01*
X1515646Y772630D01*
X1515687Y772827D01*
X1517248Y773458D01*
X1517414Y773345D01*
X1518290Y773163D01*
X1519169Y773329D01*
X1523203Y774958D01*
X1523951Y775449D01*
X1524455Y776188D01*
X1524637Y777064D01*
X1524470Y777943D01*
X1522334Y783233D01*
X1530875Y807071D01*
X1539028Y810060D01*
X1532918Y826723D01*
D02*
G37*
G36*
X1555865Y810897D02*
X1545502Y807067D01*
X1549332Y796704D01*
X1551738Y797594D01*
X1553153Y793932D01*
X1549303Y792443D01*
X1555701Y775889D01*
X1568244Y780737D01*
X1561847Y797291D01*
X1558905Y796154D01*
X1557908Y798735D01*
X1558525Y800102D01*
X1559695Y800534D01*
X1555865Y810897D01*
D02*
G37*
G36*
X1496297Y781641D02*
X1495458Y781302D01*
X1494372Y780590D01*
X1493640Y779516D01*
X1493376Y778245D01*
X1493618Y776969D01*
X1495137Y773209D01*
X1499062Y774794D01*
X1496297Y781641D01*
D02*
G37*
G36*
X1488058Y778042D02*
X1480058Y774832D01*
X1482467Y768827D01*
X1490467Y772037D01*
X1488058Y778042D01*
D02*
G37*
G36*
X1500014Y772439D02*
X1496088Y770854D01*
X1497606Y767094D01*
X1498318Y766007D01*
X1499392Y765276D01*
X1500663Y765011D01*
X1501940Y765254D01*
X1502779Y765592D01*
X1500014Y772439D01*
D02*
G37*
G36*
X1477701Y773886D02*
X1469700Y770677D01*
X1472109Y764672D01*
X1480110Y767881D01*
X1477701Y773886D01*
D02*
G37*
G36*
X1491413Y769679D02*
X1483413Y766470D01*
X1485822Y760465D01*
X1493822Y763674D01*
X1491413Y769679D01*
D02*
G37*
G36*
X1436173Y1291191D02*
X1435609Y1284745D01*
X1444197Y1283994D01*
X1444761Y1290439D01*
X1436173Y1291191D01*
D02*
G37*
G36*
X1447291Y1290218D02*
X1446727Y1283773D01*
X1455314Y1283021D01*
X1455878Y1289467D01*
X1447291Y1290218D01*
D02*
G37*
G36*
X1435388Y1282215D02*
X1434824Y1275770D01*
X1443412Y1275018D01*
X1443975Y1281464D01*
X1435388Y1282215D01*
D02*
G37*
G36*
X1446506Y1281242D02*
X1445942Y1274797D01*
X1454529Y1274046D01*
X1455093Y1280491D01*
X1446506Y1281242D01*
D02*
G37*
G36*
X1435458Y1271362D02*
X1434286Y1257965D01*
X1439192Y1257536D01*
X1440156Y1256387D01*
X1439978Y1254343D01*
X1437312Y1254576D01*
X1436349Y1243570D01*
X1447355Y1242607D01*
X1448318Y1253613D01*
X1446710Y1253754D01*
X1445746Y1254903D01*
X1445925Y1256947D01*
X1451967Y1256418D01*
X1453139Y1269815D01*
X1435458Y1271362D01*
D02*
G37*
%LPD*%
D14*
X1487134Y1238600D02*
D03*
X1517020Y1235985D02*
D03*
X1497096Y1237728D02*
D03*
X1507057Y1236856D02*
D03*
X1512039Y1236420D02*
D03*
X1502076Y1237292D02*
D03*
X1492115Y1238164D02*
D03*
X1522000Y1235549D02*
D03*
D15*
X1528476Y1234982D02*
D03*
X1480658Y1239166D02*
D03*
X1472689Y1239863D02*
D03*
X1536445Y1234286D02*
D03*
D16*
X1655567Y883173D02*
D03*
X1679372Y875217D02*
D03*
X1676361Y866207D02*
D03*
X1673349Y857197D02*
D03*
X1652555Y874163D02*
D03*
X1649544Y865153D02*
D03*
D17*
X1698033Y848473D02*
D03*
X1715880Y842565D02*
D03*
D18*
X1639313Y915207D02*
D03*
X1645946Y932798D02*
D03*
D19*
X1677722Y917431D02*
D03*
X1671494Y899692D02*
D03*
D20*
X1660319Y840244D02*
D03*
X1642502Y846245D02*
D03*
D21*
X1695344Y891880D02*
D03*
X1701394Y909681D02*
D03*
D22*
X1655444Y909825D02*
D03*
X1660621Y923904D02*
D03*
D23*
X1620035Y1251804D02*
D03*
X1601337Y1253771D02*
D03*
D24*
X1568110Y1212994D02*
D03*
X1464550Y1214526D02*
D03*
X1462732Y1192601D02*
D03*
X1512410Y1132813D02*
D03*
X1493682Y1134452D02*
D03*
X1549381Y1214633D02*
D03*
X1481461Y1190963D02*
D03*
X1483279Y1212887D02*
D03*
D25*
X1565943Y1191655D02*
D03*
X1547235Y1193507D02*
D03*
D26*
X1677670Y1104032D02*
D03*
X1687651Y1088100D02*
D03*
D27*
X1563777Y1170456D02*
D03*
X1545084Y1172457D02*
D03*
D28*
X1564720Y1151773D02*
D03*
X1563525Y1136821D02*
D03*
D29*
X1508961Y1178288D02*
D03*
D30*
X1511791Y1164739D02*
D03*
X1498161Y1192533D02*
D03*
X1502146Y1192185D02*
D03*
X1506131Y1191836D02*
D03*
X1518085Y1190790D02*
D03*
X1522069Y1190441D02*
D03*
X1515775Y1164391D02*
D03*
X1499836Y1165785D02*
D03*
X1495851Y1166134D02*
D03*
X1510115Y1191487D02*
D03*
X1507806Y1165088D02*
D03*
X1503821Y1165436D02*
D03*
X1514100Y1191139D02*
D03*
X1519760Y1164043D02*
D03*
D31*
X1738858Y1072878D02*
D03*
X1723006Y1062772D02*
D03*
D32*
X1705569Y1028333D02*
D03*
X1689664Y1018308D02*
D03*
D33*
X1674366Y1043734D02*
D03*
X1679451Y1035709D02*
D03*
X1669282Y1051759D02*
D03*
X1690485Y1065192D02*
D03*
X1695569Y1057167D02*
D03*
X1700653Y1049142D02*
D03*
D34*
X1624068Y1071526D02*
D03*
X1634379Y1055806D02*
D03*
D35*
X1529356Y1072939D02*
D03*
X1457194Y1154539D02*
D03*
X1530995Y1091667D02*
D03*
X1474808Y1126397D02*
D03*
X1476446Y1145125D02*
D03*
X1458832Y1173267D02*
D03*
X1445351Y1282618D02*
D03*
X1443712Y1263890D02*
D03*
D36*
X1547310Y822549D02*
D03*
X1529660Y816077D02*
D03*
D37*
X1568244Y763552D02*
D03*
X1550776Y756600D02*
D03*
D38*
X1509524Y777650D02*
D03*
X1500715Y774092D02*
D03*
X1518333Y781208D02*
D03*
X1527733Y757934D02*
D03*
X1518924Y754376D02*
D03*
X1510115Y750819D02*
D03*
D39*
X1526591Y708968D02*
D03*
X1519501Y726379D02*
D03*
D40*
X1441026Y1233649D02*
D03*
X1442334Y1248592D02*
D03*
D41*
X1356602Y1169054D02*
D03*
X1371010Y1156977D02*
D03*
D42*
X1304008Y1187122D02*
D03*
X1318480Y1175121D02*
D03*
D43*
X1351482Y1134637D02*
D03*
X1357568Y1141931D02*
D03*
X1345397Y1127342D02*
D03*
X1326122Y1143419D02*
D03*
X1332208Y1150714D02*
D03*
X1338293Y1158009D02*
D03*
D44*
X1337420Y1075684D02*
D03*
X1349445Y1090136D02*
D03*
D45*
X1402788Y827476D02*
D03*
X1386212Y836345D02*
D03*
D46*
X1293063Y1119339D02*
D03*
X1305179Y1133715D02*
D03*
D47*
X1312934Y937950D02*
D03*
X1309391Y956413D02*
D03*
D48*
X1370813Y773835D02*
D03*
X1354193Y782624D02*
D03*
D49*
X1488761Y749727D02*
D03*
X1481761Y767176D02*
D03*
D50*
X1343464Y827676D02*
D03*
X1335044Y832074D02*
D03*
X1323423Y809826D02*
D03*
X1331844Y805428D02*
D03*
X1340265Y801029D02*
D03*
X1351885Y823278D02*
D03*
D51*
X1308745Y825374D02*
D03*
X1317487Y842017D02*
D03*
D52*
X1302251Y770144D02*
D03*
X1310907Y786832D02*
D03*
D53*
X1253118Y1010573D02*
D03*
X1271566Y1014191D02*
D03*
D54*
X1276670Y984960D02*
D03*
X1274820Y994279D02*
D03*
X1278520Y975642D02*
D03*
X1253901Y970754D02*
D03*
X1252051Y980072D02*
D03*
X1250201Y989390D02*
D03*
D55*
X1206009Y981021D02*
D03*
X1224439Y984734D02*
D03*
D56*
X1251854Y929908D02*
D03*
X1248287Y948365D02*
D03*
D57*
X1499623Y1094512D02*
D03*
X1491902Y1115264D02*
D03*
X1480695Y1096168D02*
D03*
D58*
X1656712Y1090572D02*
D03*
X1666533Y1074541D02*
D03*
D59*
X1648540Y1068495D02*
D03*
X1640894Y1081400D02*
D03*
D60*
X1558774Y786590D02*
D03*
X1541238Y779813D02*
D03*
D61*
X1538528Y798600D02*
D03*
X1552598Y803801D02*
D03*
D62*
X1276256Y934908D02*
D03*
X1272873Y953401D02*
D03*
D63*
X1291836Y952554D02*
D03*
X1294317Y937760D02*
D03*
D64*
X1312289Y1103502D02*
D03*
X1324547Y1117756D02*
D03*
D65*
X1335807Y1102473D02*
D03*
X1325859Y1091247D02*
D03*
D66*
X1391304Y811846D02*
D03*
X1378221Y819184D02*
D03*
D67*
X1365677Y804938D02*
D03*
X1382208Y795984D02*
D03*
D68*
X1546753Y1150769D02*
D03*
X1528029Y1152469D02*
D03*
D114*
X1512566Y1093290D02*
D03*
X1513889Y1108412D02*
D03*
D136*
X1683910Y866474D02*
G03*
X1688464Y869864I-177J4992D01*
G01*
X1700129Y1063189D02*
G03*
X1700377Y1068861I-3982J3015D01*
G01*
X1524027Y748807D02*
G03*
X1529562Y747543I3683J3375D01*
G01*
X1245750Y977022D02*
G03*
X1242615Y970755I2504J-5171D01*
G01*
X1330914Y797931D02*
G03*
X1333541Y792899I4957J-615D01*
G01*
X1382220Y833548D02*
X1386212Y836345D01*
X1700171Y892564D02*
X1736469Y894067D01*
X1688464Y869864D02*
X1695177Y889614D01*
X1695344Y891881D01*
X1700171Y892564D01*
X1691204Y893217D02*
X1695344Y891881D01*
X1675738Y898646D02*
X1691204Y893217D01*
X1671494Y899692D02*
X1675738Y898646D01*
X1676361Y866207D02*
X1683910Y866474D01*
X1670024Y1077170D02*
X1684001Y1085733D01*
X1689303Y1086538D02*
X1700377Y1068861D01*
X1687651Y1088100D02*
X1690170Y1092273D01*
X1687651Y1088100D02*
X1689303Y1086538D01*
X1666533Y1074541D02*
X1670024Y1077170D01*
X1684001Y1085733D02*
X1687651Y1088100D01*
X1634379Y1055806D02*
X1639223Y1056352D01*
X1695569Y1057167D02*
X1700129Y1063189D01*
X1690170Y1092273D02*
X1711927Y1121367D01*
X1518924Y754376D02*
X1524028Y748807D01*
X1541238Y779813D02*
X1543196Y775906D01*
X1549105Y760617D01*
X1554429Y753372D02*
X1579133Y726735D01*
X1549105Y760617D02*
X1550776Y756600D01*
X1548943Y755256D02*
X1550776Y756600D01*
X1554429Y753372D01*
X1529562Y747543D02*
X1548943Y755256D01*
X1319731Y1151868D02*
X1321344Y1153490D01*
X1306160Y1135765D02*
X1319731Y1151868D01*
X1305179Y1133715D02*
X1306160Y1135765D01*
X1325230Y1153500D02*
X1332208Y1150714D01*
X1321344Y1153490D02*
X1325230Y1153500D01*
X1305179Y1133715D02*
X1309522Y1129790D01*
X1319760Y1121161D01*
X1324547Y1117756D01*
X1298321Y1134656D02*
X1305179Y1133715D01*
X1266082Y1146652D02*
X1298321Y1134656D01*
X1245750Y977021D02*
X1252051Y980072D01*
X1242615Y970755D02*
X1246715Y949538D01*
X1248287Y948365D01*
X1269409Y952327D02*
X1272873Y953401D01*
X1251810Y949108D02*
X1269409Y952327D01*
X1248287Y948365D02*
X1251810Y949108D01*
X1245028Y946258D02*
X1248287Y948365D01*
X1213652Y926085D02*
X1245028Y946258D01*
X1354105Y777749D02*
X1354193Y782624D01*
X1351982Y783148D02*
X1354193Y782624D01*
X1349849Y741671D02*
X1354105Y777749D01*
X1354193Y782624D02*
X1356167Y786500D01*
X1363974Y800914D01*
X1365677Y804938D01*
X1333541Y792899D02*
X1351982Y783148D01*
X1330915Y797931D02*
X1331844Y805427D01*
D137*
X1660198Y896377D02*
G03*
X1660724Y895430I2639J843D01*
G01*
X1661969Y1063689D02*
G03*
X1663036Y1063498I1013J2578D01*
G01*
X1531384Y786255D02*
G03*
X1531004Y785240I2354J-1460D01*
G01*
X1336275Y1116730D02*
G03*
X1336131Y1117804I-2764J176D01*
G01*
X1281041Y961878D02*
G03*
X1280116Y962441I-1874J-2040D01*
G01*
X1364191Y816616D02*
G03*
X1363172Y816248I415J-2739D01*
G01*
X1278520Y975642D02*
X1283062Y975321D01*
X1309391Y956413D01*
X1351885Y823278D02*
X1382220Y833548D01*
X1529092Y811236D02*
X1529660Y816077D01*
X1518333Y781208D02*
X1529092Y811236D01*
X1639313Y915207D02*
X1641672Y911079D01*
X1656231Y885610D01*
X1655567Y883173D02*
X1656231Y885610D01*
X1655444Y909825D02*
X1656927Y906616D01*
X1673779Y919331D02*
X1677722Y917431D01*
X1656927Y906616D02*
X1660199Y896377D01*
X1661580Y923614D02*
X1673779Y919331D01*
X1660621Y923904D02*
X1661580Y923614D01*
X1675500Y877987D02*
X1679372Y875217D01*
X1660724Y895429D02*
X1675500Y877987D01*
X1651965Y1067619D02*
X1661969Y1063689D01*
X1652748Y1088715D02*
X1656712Y1090572D01*
X1663036Y1063497D02*
X1685892Y1063940D01*
X1639223Y1056352D02*
X1669282Y1051759D01*
X1640894Y1081400D02*
X1641724Y1081961D01*
X1652748Y1088715D01*
X1648540Y1068495D02*
X1651965Y1067619D01*
X1685892Y1063940D02*
X1690485Y1065192D01*
X1546753Y1150769D02*
X1554683Y1147200D01*
X1563525Y1136821D01*
X1527327Y762677D02*
X1527733Y757934D01*
X1527327Y762677D02*
X1531004Y785240D01*
X1552598Y803800D02*
X1553000Y802883D01*
X1537050Y795389D02*
X1538528Y798600D01*
X1553000Y802883D02*
X1557660Y790823D01*
X1531384Y786255D02*
X1537050Y795389D01*
X1557660Y790823D02*
X1558773Y786590D01*
X1318480Y1175121D02*
X1321215Y1172624D01*
X1335013Y1161181D01*
X1338293Y1158009D01*
X1312289Y1103502D02*
X1316441Y1099357D01*
X1323969Y1092883D01*
X1325859Y1091247D01*
X1326122Y1143419D02*
X1328719Y1139429D01*
X1336131Y1117804D01*
X1335594Y1106003D02*
X1336275Y1116730D01*
X1335594Y1106003D02*
X1335807Y1102473D01*
X1224439Y984734D02*
X1228101Y985292D01*
X1245673Y988833D01*
X1250201Y989390D01*
X1253901Y970754D02*
X1258636Y970267D01*
X1280115Y962441D01*
X1281041Y961878D02*
X1288957Y954606D01*
X1291836Y952554D01*
X1291896Y937081D02*
X1294317Y937760D01*
X1282106Y935439D02*
X1291896Y937081D01*
X1276256Y934908D02*
X1282106Y935439D01*
X1382208Y795984D02*
X1384708Y799577D01*
X1390866Y810946D01*
X1391304Y811846D01*
X1340265Y801030D02*
X1343612Y804415D01*
X1363172Y816247D01*
X1364191Y816616D02*
X1374818Y818227D01*
X1378222Y819184D01*
D138*
X1567284Y1206963D02*
X1568110Y1212994D01*
X1566474Y1197712D02*
X1567284Y1206963D01*
X1565943Y1191655D02*
X1566474Y1197712D01*
X1565181Y1185620D02*
X1565943Y1191655D01*
X1564279Y1176517D02*
X1565181Y1185620D01*
X1563777Y1170456D02*
X1564279Y1176517D01*
X1563777Y1170456D02*
X1564607Y1164252D01*
X1563574Y1154603D02*
X1564607Y1164252D01*
X1563574Y1154603D02*
X1564720Y1151773D01*
X1619505Y1067396D02*
X1624068Y1071526D01*
X1612295Y1062667D02*
X1619505Y1067396D01*
X1341478Y1071055D02*
X1347490Y1066053D01*
X1337420Y1075684D02*
X1341478Y1071055D01*
X1345786Y1127343D02*
X1348024Y1123028D01*
X1347285Y1097045D02*
X1348024Y1123028D01*
X1347285Y1097045D02*
X1349445Y1090136D01*
X1318675Y940294D02*
X1327664Y942018D01*
X1312934Y937950D02*
X1318675Y940294D01*
X1404996Y833190D02*
X1409178Y841003D01*
X1402788Y827476D02*
X1404996Y833190D01*
X1541735Y834560D02*
X1544185Y827879D01*
X1547310Y822549D01*
X1634548Y938589D02*
X1640750Y936251D01*
X1645946Y932798D01*
X1708415Y911445D02*
X1717200Y911938D01*
X1701394Y909681D02*
X1708415Y911445D01*
X1677778Y855367D02*
X1694358Y849878D01*
X1660319Y840244D02*
X1668229Y836879D01*
X1671273Y829326D01*
X1719180Y840028D02*
X1726817Y837500D01*
X1694358Y849878D02*
X1698033Y848474D01*
X1715880Y842565D02*
X1719180Y840028D01*
X1639936Y880620D02*
X1648538Y877224D01*
X1652555Y874163D01*
X1673349Y857197D02*
X1677778Y855367D01*
X1631712Y1251804D02*
X1634532Y1248985D01*
X1620035Y1251804D02*
X1631712D01*
X1680737Y1110590D02*
X1685903Y1117713D01*
X1677670Y1104032D02*
X1680737Y1110590D01*
X1547904Y1236742D02*
X1548104Y1239037D01*
X1544170Y1233609D02*
X1547904Y1236742D01*
X1536445Y1234286D02*
X1544170Y1233609D01*
X1511790Y1164739D02*
X1512596Y1173954D01*
X1508960Y1178287D02*
X1512596Y1173954D01*
X1511604Y1159625D02*
X1511791Y1164739D01*
X1511689Y1158376D02*
X1514894Y1150651D01*
X1511604Y1158615D02*
Y1159625D01*
Y1158615D02*
X1511689Y1158376D01*
X1742908Y1073835D02*
X1749691Y1078160D01*
X1738858Y1072878D02*
X1742908Y1073835D01*
X1713174Y1032341D02*
X1720952Y1029931D01*
X1705569Y1028333D02*
X1713174Y1032341D01*
X1669456Y1042552D02*
X1674366Y1043734D01*
X1661391Y1038027D02*
X1669456Y1042552D01*
X1528992Y1073372D02*
X1529356Y1072939D01*
X1514946Y1074601D02*
X1528992Y1073372D01*
X1574143Y759356D02*
X1580221Y752993D01*
X1568244Y763552D02*
X1574143Y759356D01*
X1526591Y708968D02*
X1526803Y704811D01*
X1529837Y697361D01*
X1509245Y782692D02*
X1509524Y777650D01*
X1506245Y791440D02*
X1509245Y782692D01*
X1488761Y749727D02*
X1491335Y741526D01*
X1487566Y734307D02*
X1491335Y741526D01*
X1463187Y1245191D02*
X1471356Y1244477D01*
X1472928Y1242603D01*
X1462033Y1246567D02*
X1463187Y1245191D01*
X1472689Y1239863D02*
X1472928Y1242603D01*
X1462033Y1241567D02*
Y1246567D01*
X1441026Y1233649D02*
X1454115D01*
X1462033Y1241567D01*
X1441026Y1233649D02*
X1454919Y1219757D01*
X1463641Y1213617D02*
X1464550Y1214526D01*
X1459999Y1219757D02*
X1464550Y1215206D01*
Y1214526D02*
Y1215206D01*
X1463641Y1193510D02*
Y1213617D01*
X1462732Y1192601D02*
X1463641Y1193510D01*
X1454919Y1219757D02*
X1459999D01*
X1351483Y1134202D02*
X1360882Y1124853D01*
X1360884Y1124028D01*
X1304007Y1187525D02*
X1304008Y1187122D01*
X1295668Y1195821D02*
X1304007Y1187525D01*
X1350375Y1183186D02*
X1357355Y1176243D01*
X1357372Y1169827D01*
X1350375Y1183211D02*
X1350375Y1183186D01*
X1356602Y1169054D02*
X1357372Y1169827D01*
X1351482Y1134637D02*
X1351483Y1134202D01*
X1277520Y1122992D02*
X1285882Y1120252D01*
X1281676Y984292D02*
X1290830Y985606D01*
X1370813Y773835D02*
X1371445Y766623D01*
X1370542Y757871D02*
X1371445Y766623D01*
X1347122Y831158D02*
X1351835Y839115D01*
X1343464Y827676D02*
X1347122Y831158D01*
X1304171Y818095D02*
X1308744Y825373D01*
X1296231Y816283D02*
X1304171Y818095D01*
X1285882Y1120252D02*
X1293063Y1119339D01*
X1248091Y1015783D02*
X1253118Y1010573D01*
X1238192Y1014627D02*
X1248091Y1015783D01*
X1276670Y984960D02*
X1281676Y984292D01*
X1194000Y980000D02*
X1201886Y981589D01*
X1246630Y924895D02*
X1251854Y929908D01*
X1239244Y920113D02*
X1246630Y924895D01*
X1299224Y767286D02*
X1302251Y770144D01*
X1295520Y760146D02*
X1299224Y767286D01*
X1201886Y981589D02*
X1206009Y981021D01*
X1719596Y1060809D02*
X1723006Y1062772D01*
X1704869Y1051420D02*
X1719596Y1060809D01*
X1700653Y1049142D02*
X1704869Y1051420D01*
X1531128Y1209404D02*
X1544830D01*
X1549381Y1213955D01*
X1524218Y1216314D02*
X1531128Y1209404D01*
X1549381Y1213955D02*
Y1214633D01*
X1517799Y1217396D02*
X1518881Y1216314D01*
X1524218D01*
X1516878Y1217476D02*
X1517799Y1217396D01*
X1515412Y1217605D02*
X1516878Y1217476D01*
X1524665Y1158879D02*
X1528029Y1152469D01*
X1519760Y1164043D02*
X1524665Y1158879D01*
X1510962Y1201170D02*
X1514213Y1203897D01*
X1515412Y1217605D02*
X1517020Y1235985D01*
X1514213Y1203897D02*
X1515412Y1217605D01*
X1518184Y730086D02*
X1519501Y726379D01*
X1510115Y750819D02*
X1511597Y746262D01*
X1518184Y730086D01*
X1310907Y786832D02*
X1312875Y790239D01*
X1320916Y805743D01*
X1323423Y809826D01*
X1486136Y1227193D02*
X1495590Y1215925D01*
X1442334Y1248592D02*
X1443669Y1263854D01*
X1490226Y1190340D02*
X1493030Y1192692D01*
X1497723Y1227684D02*
X1506190Y1226944D01*
X1458832Y1173267D02*
X1475377Y1171820D01*
X1478904Y1167617D01*
X1486136Y1227193D02*
X1487134Y1238599D01*
X1443669Y1263854D02*
X1443713Y1263890D01*
X1481615Y1191093D02*
X1490226Y1190340D01*
X1483279Y1212887D02*
X1495682Y1211802D01*
X1495272Y1212291D02*
X1495682Y1211802D01*
X1496359Y1229310D02*
X1497723Y1227684D01*
X1493030Y1192692D02*
X1498066Y1192251D01*
X1496359Y1229310D02*
X1497096Y1237728D01*
X1495272Y1212291D02*
X1495590Y1215925D01*
X1530106Y1179040D02*
X1534774Y1173476D01*
X1530106Y1179040D02*
X1530905Y1188175D01*
X1514176Y1191202D02*
X1514902Y1199501D01*
X1518748Y1197103D02*
X1520402Y1198442D01*
X1518085Y1190790D02*
X1518748Y1197103D01*
X1514100Y1191139D02*
X1514176Y1191202D01*
X1511476Y1247060D02*
X1512829Y1245448D01*
X1504478Y1247672D02*
X1511476Y1247060D01*
X1512039Y1236420D02*
X1512829Y1245448D01*
X1502866Y1246320D02*
X1504478Y1247672D01*
X1502077Y1237292D02*
X1502866Y1246320D01*
X1520609Y1204291D02*
X1521101Y1209918D01*
X1521818Y1210520D01*
X1514902Y1199501D02*
X1520609Y1204291D01*
X1538292Y1194447D02*
X1547235Y1193507D01*
X1536420Y1196759D02*
X1538292Y1194447D01*
X1520402Y1198442D02*
X1536420Y1196759D01*
X1529553Y1189787D02*
X1530905Y1188175D01*
X1522069Y1190441D02*
X1529553Y1189787D01*
X1506131Y1191836D02*
X1507184Y1203882D01*
X1504404Y1206522D02*
X1506190Y1226944D01*
X1507057Y1236856D01*
X1502145Y1192184D02*
X1503321Y1205613D01*
X1507184Y1203882D02*
X1509351Y1205700D01*
X1512039Y1236420D01*
X1510115Y1191487D02*
X1510962Y1201170D01*
X1503321Y1205613D02*
X1504404Y1206522D01*
X1495144Y1156137D02*
X1499285Y1159491D01*
X1493682Y1134452D02*
X1493902Y1136552D01*
X1501290Y1141352D02*
X1503821Y1165436D01*
X1512410Y1132813D02*
X1512631Y1134914D01*
X1505301Y1141260D02*
X1507806Y1165088D01*
X1509020Y1139373D02*
X1512631Y1134914D01*
X1534774Y1173476D02*
X1545095Y1172574D01*
X1476446Y1145125D02*
X1477415Y1156195D01*
X1472314Y1097893D02*
X1474808Y1126397D01*
X1472314Y1097893D02*
X1473667Y1096281D01*
X1477415Y1156195D02*
X1479027Y1157547D01*
X1473667Y1096281D02*
X1480154Y1095714D01*
X1480695Y1096168D01*
X1478904Y1167617D02*
X1495851Y1166134D01*
X1479027Y1157547D02*
X1495144Y1156137D01*
X1503821Y1165436D02*
X1503821Y1165436D01*
X1499285Y1159491D02*
X1499836Y1165785D01*
X1506625Y1139625D02*
X1509020Y1139373D01*
X1493902Y1136552D02*
X1498362Y1140164D01*
X1499654Y1140028D02*
X1501290Y1141352D01*
X1498362Y1140164D02*
X1499654Y1140028D01*
X1505301Y1141260D02*
X1506625Y1139625D01*
D139*
X1499629Y1094517D02*
X1512480Y1093392D01*
X1512572Y1093289D02*
X1512577Y1093283D01*
X1530994Y1091672D01*
X1530995Y1091674D01*
D140*
X1481757Y1240246D02*
X1482271Y1246122D01*
X1483218Y1246917D01*
X1483503Y1250181D01*
X1527790Y1248649D02*
X1529177Y1249813D01*
X1480674Y1239337D02*
X1481757Y1240246D01*
X1527301Y1243059D02*
X1527790Y1248649D01*
X1527567Y1236065D02*
X1528096Y1242112D01*
X1527301Y1243059D02*
X1528096Y1242112D01*
X1527567Y1236065D02*
X1528476Y1234982D01*
D141*
X1476714Y1250302D02*
D03*
X1534294Y1245264D02*
D03*
D142*
X1462033Y1246567D02*
D03*
X1548104Y1239037D02*
D03*
D143*
X1465676Y1288208D02*
D03*
X1551747Y1280678D02*
D03*
D144*
X1736469Y894067D02*
D03*
X1266082Y1146652D02*
D03*
X1213652Y926085D02*
D03*
X1711927Y1121367D02*
D03*
X1579133Y726736D02*
D03*
X1349850Y741671D02*
D03*
D145*
X1729609Y875281D02*
D03*
D146*
X1722161Y1104183D02*
D03*
D147*
X1560389Y719760D02*
D03*
D148*
X1279311Y1161652D02*
D03*
D149*
X1332384Y751415D02*
D03*
D150*
X1210299Y945802D02*
D03*
D151*
X1564090Y1159428D02*
D03*
X1566879Y1202337D02*
D03*
X1612295Y1062667D02*
D03*
X1347490Y1066053D02*
D03*
X1327664Y942018D02*
D03*
X1409178Y841003D02*
D03*
X1541735Y834560D02*
D03*
X1634548Y938589D02*
D03*
X1726817Y837500D02*
D03*
X1639936Y880620D02*
D03*
X1717200Y911938D02*
D03*
X1671273Y829326D02*
D03*
X1634532Y1248985D02*
D03*
X1576843Y1297603D02*
D03*
X1583866Y1289552D02*
D03*
X1575072Y1241416D02*
D03*
X1564761Y1242266D02*
D03*
X1564743Y1232532D02*
D03*
X1557008Y1227354D02*
D03*
X1685903Y1117713D02*
D03*
X1539794Y1303032D02*
D03*
X1527033Y1308447D02*
D03*
X1517315Y1303755D02*
D03*
X1508934Y1309663D02*
D03*
X1495225Y1305494D02*
D03*
X1533637Y1216017D02*
D03*
X1522396Y1222989D02*
D03*
X1528711Y1222513D02*
D03*
X1514894Y1150651D02*
D03*
X1749691Y1078160D02*
D03*
X1720952Y1029931D02*
D03*
X1661391Y1038027D02*
D03*
X1514946Y1074601D02*
D03*
X1580221Y752993D02*
D03*
X1529837Y697361D02*
D03*
X1506245Y791440D02*
D03*
X1483875Y1307323D02*
D03*
X1466999Y1229348D02*
D03*
X1451054Y1305084D02*
D03*
X1441704Y1304780D02*
D03*
X1460195Y1230643D02*
D03*
X1473632Y1228810D02*
D03*
X1360884Y1124028D02*
D03*
X1295668Y1195821D02*
D03*
X1350375Y1183211D02*
D03*
X1277520Y1122992D02*
D03*
X1290830Y985606D02*
D03*
X1351835Y839115D02*
D03*
X1487566Y734307D02*
D03*
X1370542Y757871D02*
D03*
X1238192Y1014627D02*
D03*
X1194000Y980000D02*
D03*
X1239244Y920113D02*
D03*
X1296231Y816283D02*
D03*
X1295520Y760146D02*
D03*
X1521818Y1210520D02*
D03*
X1495682Y1211802D02*
D03*
M02*
