G04*
G04 #@! TF.GenerationSoftware,Altium Limited,Altium Designer,25.8.1 (18)*
G04*
G04 Layer_Color=2752767*
%FSLAX44Y44*%
%MOMM*%
G71*
G04*
G04 #@! TF.SameCoordinates,47027A52-A871-4FAA-A7FE-F427427C3117*
G04*
G04*
G04 #@! TF.FilePolarity,Positive*
G04*
G01*
G75*
%ADD152C,0.0677*%
%ADD153C,0.0508*%
D152*
X1478746Y1250302D02*
G03*
X1478746Y1250302I-2032J0D01*
G01*
X1536326Y1245264D02*
G03*
X1536326Y1245264I-2032J0D01*
G01*
D153*
X1462033Y1244535D02*
X1460001Y1248599D01*
X1464065D01*
X1462033Y1244535D01*
X1465676Y1286176D02*
X1466692Y1287192D01*
X1467708D01*
X1466692Y1288208D01*
X1467708Y1289224D01*
X1466692D01*
X1465676Y1290240D01*
X1464660Y1289224D01*
X1463644D01*
X1464660Y1288208D01*
X1463644Y1287192D01*
X1464660D01*
X1465676Y1286176D01*
X1548104Y1237005D02*
X1546072Y1241069D01*
X1550136D01*
X1548104Y1237005D01*
X1551747Y1278646D02*
X1552763Y1279662D01*
X1553779D01*
X1552763Y1280678D01*
X1553779Y1281694D01*
X1552763D01*
X1551747Y1282710D01*
X1550731Y1281694D01*
X1549715D01*
X1550731Y1280678D01*
X1549715Y1279662D01*
X1550731D01*
X1551747Y1278646D01*
X1734437Y892035D02*
Y896099D01*
X1738501D01*
Y892035D01*
X1734437D01*
X1727577Y873249D02*
Y877313D01*
X1731641D01*
Y873249D01*
X1727577D01*
X1720129Y1102151D02*
Y1106215D01*
X1724193D01*
Y1102151D01*
X1720129D01*
X1558357Y717728D02*
Y721792D01*
X1562421D01*
Y717728D01*
X1558357D01*
X1277279Y1159620D02*
Y1163684D01*
X1281343D01*
Y1159620D01*
X1277279D01*
X1330352Y749383D02*
Y753447D01*
X1334416D01*
Y749383D01*
X1330352D01*
X1208267Y943770D02*
Y947834D01*
X1212331D01*
Y943770D01*
X1208267D01*
X1264050Y1144620D02*
Y1148684D01*
X1268114D01*
Y1144620D01*
X1264050D01*
X1211620Y924053D02*
Y928117D01*
X1215684D01*
Y924053D01*
X1211620D01*
X1709895Y1119335D02*
Y1123399D01*
X1713960D01*
Y1119335D01*
X1709895D01*
X1577101Y724704D02*
Y728767D01*
X1581165D01*
Y724704D01*
X1577101D01*
X1347818Y739639D02*
Y743703D01*
X1351882D01*
Y739639D01*
X1347818D01*
X1562058Y1157396D02*
X1563074Y1159428D01*
X1562058Y1161460D01*
X1564090Y1160444D01*
X1566122Y1161460D01*
X1565106Y1159428D01*
X1566122Y1157396D01*
X1564090Y1158412D01*
X1562058Y1157396D01*
X1564847Y1200305D02*
X1565863Y1202337D01*
X1564847Y1204369D01*
X1566879Y1203353D01*
X1568911Y1204369D01*
X1567895Y1202337D01*
X1568911Y1200305D01*
X1566879Y1201321D01*
X1564847Y1200305D01*
X1610263Y1060635D02*
X1611279Y1062667D01*
X1610263Y1064699D01*
X1612295Y1063683D01*
X1614327Y1064699D01*
X1613311Y1062667D01*
X1614327Y1060635D01*
X1612295Y1061651D01*
X1610263Y1060635D01*
X1345458Y1064021D02*
X1346474Y1066053D01*
X1345458Y1068085D01*
X1347490Y1067069D01*
X1349522Y1068085D01*
X1348506Y1066053D01*
X1349522Y1064021D01*
X1347490Y1065037D01*
X1345458Y1064021D01*
X1325632Y939986D02*
X1326648Y942018D01*
X1325632Y944050D01*
X1327664Y943034D01*
X1329696Y944050D01*
X1328680Y942018D01*
X1329696Y939986D01*
X1327664Y941002D01*
X1325632Y939986D01*
X1407146Y838971D02*
X1408162Y841003D01*
X1407146Y843035D01*
X1409178Y842019D01*
X1411210Y843035D01*
X1410194Y841003D01*
X1411210Y838971D01*
X1409178Y839987D01*
X1407146Y838971D01*
X1539703Y832529D02*
X1540719Y834560D01*
X1539703Y836592D01*
X1541735Y835576D01*
X1543767Y836592D01*
X1542751Y834560D01*
X1543767Y832529D01*
X1541735Y833544D01*
X1539703Y832529D01*
X1632516Y936557D02*
X1633532Y938589D01*
X1632516Y940621D01*
X1634548Y939605D01*
X1636580Y940621D01*
X1635564Y938589D01*
X1636580Y936557D01*
X1634548Y937573D01*
X1632516Y936557D01*
X1724785Y835468D02*
X1725801Y837500D01*
X1724785Y839532D01*
X1726817Y838516D01*
X1728849Y839532D01*
X1727833Y837500D01*
X1728849Y835468D01*
X1726817Y836484D01*
X1724785Y835468D01*
X1637904Y878587D02*
X1638920Y880620D01*
X1637904Y882652D01*
X1639936Y881636D01*
X1641968Y882652D01*
X1640952Y880620D01*
X1641968Y878587D01*
X1639936Y879604D01*
X1637904Y878587D01*
X1715168Y909906D02*
X1716184Y911938D01*
X1715168Y913970D01*
X1717200Y912954D01*
X1719232Y913970D01*
X1718216Y911938D01*
X1719232Y909906D01*
X1717200Y910922D01*
X1715168Y909906D01*
X1669241Y827294D02*
X1670258Y829326D01*
X1669241Y831358D01*
X1671273Y830342D01*
X1673306Y831358D01*
X1672289Y829326D01*
X1673306Y827294D01*
X1671273Y828310D01*
X1669241Y827294D01*
X1632500Y1246953D02*
X1633516Y1248985D01*
X1632500Y1251016D01*
X1634532Y1250001D01*
X1636564Y1251016D01*
X1635548Y1248985D01*
X1636564Y1246953D01*
X1634532Y1247969D01*
X1632500Y1246953D01*
X1574811Y1295571D02*
X1575827Y1297603D01*
X1574811Y1299635D01*
X1576843Y1298619D01*
X1578875Y1299635D01*
X1577859Y1297603D01*
X1578875Y1295571D01*
X1576843Y1296587D01*
X1574811Y1295571D01*
X1581834Y1287520D02*
X1582850Y1289552D01*
X1581834Y1291584D01*
X1583866Y1290568D01*
X1585898Y1291584D01*
X1584882Y1289552D01*
X1585898Y1287520D01*
X1583866Y1288536D01*
X1581834Y1287520D01*
X1573040Y1239384D02*
X1574056Y1241416D01*
X1573040Y1243448D01*
X1575072Y1242432D01*
X1577104Y1243448D01*
X1576088Y1241416D01*
X1577104Y1239384D01*
X1575072Y1240400D01*
X1573040Y1239384D01*
X1562729Y1240234D02*
X1563745Y1242266D01*
X1562729Y1244298D01*
X1564761Y1243282D01*
X1566793Y1244298D01*
X1565777Y1242266D01*
X1566793Y1240234D01*
X1564761Y1241250D01*
X1562729Y1240234D01*
X1562711Y1230500D02*
X1563728Y1232532D01*
X1562711Y1234564D01*
X1564743Y1233548D01*
X1566776Y1234564D01*
X1565759Y1232532D01*
X1566776Y1230500D01*
X1564743Y1231516D01*
X1562711Y1230500D01*
X1554976Y1225322D02*
X1555992Y1227354D01*
X1554976Y1229386D01*
X1557008Y1228370D01*
X1559040Y1229386D01*
X1558024Y1227354D01*
X1559040Y1225322D01*
X1557008Y1226338D01*
X1554976Y1225322D01*
X1683871Y1115681D02*
X1684887Y1117713D01*
X1683871Y1119745D01*
X1685903Y1118729D01*
X1687935Y1119745D01*
X1686919Y1117713D01*
X1687935Y1115681D01*
X1685903Y1116697D01*
X1683871Y1115681D01*
X1537762Y1301000D02*
X1538778Y1303032D01*
X1537762Y1305064D01*
X1539794Y1304048D01*
X1541826Y1305064D01*
X1540810Y1303032D01*
X1541826Y1301000D01*
X1539794Y1302016D01*
X1537762Y1301000D01*
X1525001Y1306415D02*
X1526017Y1308447D01*
X1525001Y1310479D01*
X1527033Y1309463D01*
X1529065Y1310479D01*
X1528049Y1308447D01*
X1529065Y1306415D01*
X1527033Y1307431D01*
X1525001Y1306415D01*
X1515283Y1301723D02*
X1516299Y1303755D01*
X1515283Y1305787D01*
X1517315Y1304771D01*
X1519347Y1305787D01*
X1518331Y1303755D01*
X1519347Y1301723D01*
X1517315Y1302739D01*
X1515283Y1301723D01*
X1506902Y1307631D02*
X1507918Y1309663D01*
X1506902Y1311695D01*
X1508934Y1310679D01*
X1510966Y1311695D01*
X1509950Y1309663D01*
X1510966Y1307631D01*
X1508934Y1308647D01*
X1506902Y1307631D01*
X1493193Y1303462D02*
X1494209Y1305494D01*
X1493193Y1307526D01*
X1495225Y1306510D01*
X1497257Y1307526D01*
X1496241Y1305494D01*
X1497257Y1303462D01*
X1495225Y1304478D01*
X1493193Y1303462D01*
X1531605Y1213985D02*
X1532621Y1216017D01*
X1531605Y1218049D01*
X1533637Y1217033D01*
X1535669Y1218049D01*
X1534653Y1216017D01*
X1535669Y1213985D01*
X1533637Y1215001D01*
X1531605Y1213985D01*
X1520364Y1220957D02*
X1521380Y1222989D01*
X1520364Y1225021D01*
X1522396Y1224005D01*
X1524428Y1225021D01*
X1523412Y1222989D01*
X1524428Y1220957D01*
X1522396Y1221973D01*
X1520364Y1220957D01*
X1526679Y1220480D02*
X1527695Y1222513D01*
X1526679Y1224545D01*
X1528711Y1223529D01*
X1530743Y1224545D01*
X1529727Y1222513D01*
X1530743Y1220480D01*
X1528711Y1221497D01*
X1526679Y1220480D01*
X1512862Y1148619D02*
X1513878Y1150651D01*
X1512862Y1152683D01*
X1514894Y1151667D01*
X1516926Y1152683D01*
X1515910Y1150651D01*
X1516926Y1148619D01*
X1514894Y1149635D01*
X1512862Y1148619D01*
X1747659Y1076128D02*
X1748675Y1078160D01*
X1747659Y1080192D01*
X1749691Y1079176D01*
X1751723Y1080192D01*
X1750707Y1078160D01*
X1751723Y1076128D01*
X1749691Y1077144D01*
X1747659Y1076128D01*
X1718920Y1027899D02*
X1719936Y1029931D01*
X1718920Y1031963D01*
X1720952Y1030947D01*
X1722984Y1031963D01*
X1721968Y1029931D01*
X1722984Y1027899D01*
X1720952Y1028915D01*
X1718920Y1027899D01*
X1659359Y1035995D02*
X1660375Y1038027D01*
X1659359Y1040059D01*
X1661391Y1039043D01*
X1663423Y1040059D01*
X1662407Y1038027D01*
X1663423Y1035995D01*
X1661391Y1037011D01*
X1659359Y1035995D01*
X1512914Y1072569D02*
X1513930Y1074601D01*
X1512914Y1076633D01*
X1514946Y1075617D01*
X1516978Y1076633D01*
X1515962Y1074601D01*
X1516978Y1072569D01*
X1514946Y1073585D01*
X1512914Y1072569D01*
X1578189Y750961D02*
X1579205Y752993D01*
X1578189Y755025D01*
X1580221Y754009D01*
X1582253Y755025D01*
X1581237Y752993D01*
X1582253Y750961D01*
X1580221Y751977D01*
X1578189Y750961D01*
X1527805Y695329D02*
X1528821Y697361D01*
X1527805Y699393D01*
X1529837Y698377D01*
X1531869Y699393D01*
X1530853Y697361D01*
X1531869Y695329D01*
X1529837Y696345D01*
X1527805Y695329D01*
X1504213Y789408D02*
X1505229Y791440D01*
X1504213Y793472D01*
X1506245Y792456D01*
X1508277Y793472D01*
X1507261Y791440D01*
X1508277Y789408D01*
X1506245Y790424D01*
X1504213Y789408D01*
X1481843Y1305291D02*
X1482859Y1307323D01*
X1481843Y1309355D01*
X1483875Y1308340D01*
X1485907Y1309355D01*
X1484891Y1307323D01*
X1485907Y1305291D01*
X1483875Y1306308D01*
X1481843Y1305291D01*
X1464967Y1227316D02*
X1465983Y1229348D01*
X1464967Y1231380D01*
X1466999Y1230364D01*
X1469031Y1231380D01*
X1468015Y1229348D01*
X1469031Y1227316D01*
X1466999Y1228332D01*
X1464967Y1227316D01*
X1449022Y1303052D02*
X1450038Y1305084D01*
X1449022Y1307116D01*
X1451054Y1306100D01*
X1453086Y1307116D01*
X1452070Y1305084D01*
X1453086Y1303052D01*
X1451054Y1304068D01*
X1449022Y1303052D01*
X1439672Y1302748D02*
X1440688Y1304780D01*
X1439672Y1306812D01*
X1441704Y1305796D01*
X1443736Y1306812D01*
X1442720Y1304780D01*
X1443736Y1302748D01*
X1441704Y1303764D01*
X1439672Y1302748D01*
X1458163Y1228612D02*
X1459178Y1230643D01*
X1458163Y1232675D01*
X1460195Y1231659D01*
X1462227Y1232675D01*
X1461210Y1230643D01*
X1462227Y1228612D01*
X1460195Y1229628D01*
X1458163Y1228612D01*
X1471600Y1226777D02*
X1472616Y1228810D01*
X1471600Y1230842D01*
X1473632Y1229826D01*
X1475664Y1230842D01*
X1474648Y1228810D01*
X1475664Y1226777D01*
X1473632Y1227794D01*
X1471600Y1226777D01*
X1358852Y1121996D02*
X1359868Y1124028D01*
X1358852Y1126060D01*
X1360884Y1125044D01*
X1362916Y1126060D01*
X1361900Y1124028D01*
X1362916Y1121996D01*
X1360884Y1123012D01*
X1358852Y1121996D01*
X1293636Y1193789D02*
X1294651Y1195821D01*
X1293636Y1197853D01*
X1295668Y1196837D01*
X1297699Y1197853D01*
X1296684Y1195821D01*
X1297699Y1193789D01*
X1295668Y1194805D01*
X1293636Y1193789D01*
X1348343Y1181179D02*
X1349359Y1183211D01*
X1348343Y1185243D01*
X1350375Y1184227D01*
X1352407Y1185243D01*
X1351391Y1183211D01*
X1352407Y1181179D01*
X1350375Y1182195D01*
X1348343Y1181179D01*
X1275488Y1120960D02*
X1276504Y1122992D01*
X1275488Y1125024D01*
X1277520Y1124008D01*
X1279552Y1125024D01*
X1278536Y1122992D01*
X1279552Y1120960D01*
X1277520Y1121976D01*
X1275488Y1120960D01*
X1288798Y983574D02*
X1289814Y985606D01*
X1288798Y987638D01*
X1290830Y986622D01*
X1292862Y987638D01*
X1291846Y985606D01*
X1292862Y983574D01*
X1290830Y984590D01*
X1288798Y983574D01*
X1349803Y837083D02*
X1350819Y839115D01*
X1349803Y841147D01*
X1351835Y840131D01*
X1353867Y841147D01*
X1352851Y839115D01*
X1353867Y837083D01*
X1351835Y838099D01*
X1349803Y837083D01*
X1485534Y732275D02*
X1486550Y734307D01*
X1485534Y736339D01*
X1487566Y735323D01*
X1489598Y736339D01*
X1488582Y734307D01*
X1489598Y732275D01*
X1487566Y733291D01*
X1485534Y732275D01*
X1368510Y755839D02*
X1369526Y757871D01*
X1368510Y759903D01*
X1370542Y758887D01*
X1372574Y759903D01*
X1371558Y757871D01*
X1372574Y755839D01*
X1370542Y756855D01*
X1368510Y755839D01*
X1236160Y1012595D02*
X1237176Y1014627D01*
X1236160Y1016659D01*
X1238192Y1015643D01*
X1240224Y1016659D01*
X1239208Y1014627D01*
X1240224Y1012595D01*
X1238192Y1013611D01*
X1236160Y1012595D01*
X1191969Y977968D02*
X1192984Y980000D01*
X1191969Y982032D01*
X1194000Y981016D01*
X1196032Y982032D01*
X1195016Y980000D01*
X1196032Y977968D01*
X1194000Y978984D01*
X1191969Y977968D01*
X1237212Y918081D02*
X1238228Y920113D01*
X1237212Y922145D01*
X1239244Y921129D01*
X1241276Y922145D01*
X1240260Y920113D01*
X1241276Y918081D01*
X1239244Y919097D01*
X1237212Y918081D01*
X1294199Y814251D02*
X1295215Y816283D01*
X1294199Y818315D01*
X1296231Y817299D01*
X1298263Y818315D01*
X1297247Y816283D01*
X1298263Y814251D01*
X1296231Y815267D01*
X1294199Y814251D01*
X1293488Y758114D02*
X1294504Y760146D01*
X1293488Y762178D01*
X1295520Y761162D01*
X1297552Y762178D01*
X1296536Y760146D01*
X1297552Y758114D01*
X1295520Y759130D01*
X1293488Y758114D01*
X1519786Y1208488D02*
X1520802Y1210520D01*
X1519786Y1212552D01*
X1521818Y1211536D01*
X1523850Y1212552D01*
X1522834Y1210520D01*
X1523850Y1208488D01*
X1521818Y1209504D01*
X1519786Y1208488D01*
X1493650Y1209770D02*
X1494666Y1211802D01*
X1493650Y1213834D01*
X1495682Y1212818D01*
X1497714Y1213834D01*
X1496698Y1211802D01*
X1497714Y1209770D01*
X1495682Y1210786D01*
X1493650Y1209770D01*
M02*
