G04*
G04 #@! TF.GenerationSoftware,Altium Limited,Altium Designer,25.8.1 (18)*
G04*
G04 Layer_Physical_Order=2*
G04 Layer_Color=16711680*
%FSLAX44Y44*%
%MOMM*%
G71*
G04*
G04 #@! TF.SameCoordinates,47027A52-A871-4FAA-A7FE-F427427C3117*
G04*
G04*
G04 #@! TF.FilePolarity,Positive*
G04*
G01*
G75*
%ADD138C,0.2540*%
%ADD141C,0.6500*%
G04:AMPARAMS|DCode=142|XSize=2.1mm|YSize=1mm|CornerRadius=0mm|HoleSize=0mm|Usage=FLASHONLY|Rotation=265.000|XOffset=0mm|YOffset=0mm|HoleType=Round|Shape=Round|*
%AMOVALD142*
21,1,1.1000,1.0000,0.0000,0.0000,265.0*
1,1,1.0000,0.0479,0.5479*
1,1,1.0000,-0.0479,-0.5479*
%
%ADD142OVALD142*%

G04:AMPARAMS|DCode=143|XSize=1.8mm|YSize=1mm|CornerRadius=0.25mm|HoleSize=0mm|Usage=FLASHONLY|Rotation=265.000|XOffset=0mm|YOffset=0mm|HoleType=Round|Shape=RoundedRectangle|*
%AMROUNDEDRECTD143*
21,1,1.8000,0.5000,0,0,265.0*
21,1,1.3000,1.0000,0,0,265.0*
1,1,0.5000,-0.3057,-0.6257*
1,1,0.5000,-0.1924,0.6693*
1,1,0.5000,0.3057,0.6257*
1,1,0.5000,0.1924,-0.6693*
%
%ADD143ROUNDEDRECTD143*%
%ADD144C,1.3080*%
%ADD145P,1.8498X4X114.94*%
%ADD146P,1.8498X4X165.777*%
%ADD147P,1.8498X4X65.413*%
%ADD148P,1.8498X4X273.587*%
%ADD149P,1.8498X4X375.842*%
%ADD150P,1.8498X4X324.649*%
%ADD151C,0.6000*%
G36*
X1497647Y1316732D02*
X1515246Y1315347D01*
X1532749Y1313042D01*
X1550107Y1309825D01*
X1567272Y1305704D01*
X1584199Y1300690D01*
X1600840Y1294798D01*
X1617149Y1288042D01*
X1633083Y1280442D01*
X1648597Y1272019D01*
X1663649Y1262795D01*
X1678198Y1252796D01*
X1692203Y1242049D01*
X1705627Y1230584D01*
X1718432Y1218432D01*
X1730584Y1205627D01*
X1742049Y1192203D01*
X1752796Y1178198D01*
X1762795Y1163649D01*
X1772018Y1148597D01*
X1780442Y1133083D01*
X1788042Y1117149D01*
X1794798Y1100839D01*
X1800690Y1084199D01*
X1805704Y1067272D01*
X1809825Y1050107D01*
X1813042Y1032749D01*
X1815347Y1015246D01*
X1816732Y997647D01*
X1817194Y980000D01*
X1816732Y962353D01*
X1815347Y944754D01*
X1813042Y927251D01*
X1809825Y909893D01*
X1805704Y892728D01*
X1800690Y875801D01*
X1794798Y859161D01*
X1788042Y842851D01*
X1780442Y826917D01*
X1772018Y811403D01*
X1762795Y796351D01*
X1752796Y781802D01*
X1742049Y767797D01*
X1730584Y754373D01*
X1718432Y741568D01*
X1705627Y729416D01*
X1692203Y717951D01*
X1678198Y707204D01*
X1663649Y697205D01*
X1648597Y687981D01*
X1633083Y679558D01*
X1617149Y671958D01*
X1600840Y665202D01*
X1584199Y659309D01*
X1567272Y654296D01*
X1550107Y650175D01*
X1532749Y646957D01*
X1515246Y644653D01*
X1497647Y643268D01*
X1480000Y642806D01*
X1462353Y643268D01*
X1444754Y644653D01*
X1427251Y646957D01*
X1409893Y650175D01*
X1392728Y654296D01*
X1375801Y659309D01*
X1359160Y665202D01*
X1342851Y671958D01*
X1326917Y679558D01*
X1311403Y687981D01*
X1296351Y697205D01*
X1281802Y707204D01*
X1267797Y717951D01*
X1254373Y729416D01*
X1241568Y741568D01*
X1229416Y754373D01*
X1217951Y767797D01*
X1207204Y781802D01*
X1197205Y796351D01*
X1187981Y811403D01*
X1179558Y826917D01*
X1171958Y842851D01*
X1165202Y859161D01*
X1159309Y875801D01*
X1154296Y892728D01*
X1150175Y909893D01*
X1146957Y927251D01*
X1144653Y944754D01*
X1143268Y962353D01*
X1142806Y980000D01*
X1143268Y997647D01*
X1144653Y1015246D01*
X1146957Y1032749D01*
X1150175Y1050107D01*
X1154296Y1067272D01*
X1159309Y1084199D01*
X1165202Y1100839D01*
X1171958Y1117149D01*
X1179558Y1133083D01*
X1187981Y1148597D01*
X1197205Y1163649D01*
X1207204Y1178198D01*
X1217951Y1192203D01*
X1229416Y1205627D01*
X1241568Y1218432D01*
X1254373Y1230584D01*
X1267797Y1242049D01*
X1281802Y1252796D01*
X1296351Y1262795D01*
X1311403Y1272019D01*
X1326917Y1280442D01*
X1342851Y1288042D01*
X1359160Y1294798D01*
X1375801Y1300690D01*
X1392728Y1305704D01*
X1409893Y1309825D01*
X1427251Y1313042D01*
X1444754Y1315347D01*
X1462353Y1316732D01*
X1480000Y1317194D01*
X1497647Y1316732D01*
D02*
G37*
%LPC*%
G36*
X1476184Y1255136D02*
X1474375Y1254566D01*
X1472921Y1253346D01*
X1472045Y1251663D01*
X1471879Y1249772D01*
X1472450Y1247962D01*
X1473670Y1246509D01*
X1475353Y1245633D01*
X1477243Y1245467D01*
X1479053Y1246038D01*
X1480507Y1247258D01*
X1481383Y1248941D01*
X1481548Y1250831D01*
X1480978Y1252641D01*
X1479758Y1254095D01*
X1478075Y1254971D01*
X1476184Y1255136D01*
D02*
G37*
G36*
X1533765Y1250099D02*
X1531955Y1249528D01*
X1530501Y1248308D01*
X1529625Y1246625D01*
X1529460Y1244735D01*
X1530030Y1242925D01*
X1531250Y1241471D01*
X1532933Y1240595D01*
X1534824Y1240430D01*
X1536633Y1241000D01*
X1538087Y1242220D01*
X1538963Y1243903D01*
X1539129Y1245794D01*
X1538558Y1247604D01*
X1537338Y1249057D01*
X1535655Y1249933D01*
X1533765Y1250099D01*
D02*
G37*
G36*
X1496582Y1216326D02*
X1494782D01*
X1493119Y1215638D01*
X1491847Y1214365D01*
X1491158Y1212702D01*
Y1210902D01*
X1491847Y1209240D01*
X1493119Y1207967D01*
X1494782Y1207278D01*
X1496582D01*
X1498245Y1207967D01*
X1498936Y1208658D01*
X1509699Y1207716D01*
X1509699Y1207716D01*
X1509700Y1207716D01*
X1510270Y1207779D01*
X1510804Y1207837D01*
X1510804Y1207837D01*
X1510804Y1207838D01*
X1511214Y1208062D01*
X1511779Y1208372D01*
X1511779Y1208372D01*
X1511779Y1208372D01*
X1511958Y1208523D01*
X1517966Y1207997D01*
X1517983Y1207957D01*
X1519256Y1206684D01*
X1520918Y1205996D01*
X1522718D01*
X1524381Y1206684D01*
X1525654Y1207957D01*
X1526342Y1209620D01*
Y1211420D01*
X1525654Y1213082D01*
X1524381Y1214355D01*
X1522718Y1215044D01*
X1520918D01*
X1519256Y1214355D01*
X1518565Y1213664D01*
X1511279Y1214301D01*
X1511278Y1214301D01*
X1511278Y1214301D01*
X1510693Y1214237D01*
X1510174Y1214180D01*
X1510173Y1214180D01*
X1510173Y1214180D01*
X1509793Y1213972D01*
X1509199Y1213646D01*
X1509199Y1213645D01*
X1509199Y1213645D01*
X1509020Y1213495D01*
X1499534Y1214325D01*
X1499517Y1214365D01*
X1498245Y1215638D01*
X1496582Y1216326D01*
D02*
G37*
G36*
X1278508Y1174468D02*
X1273342Y1168611D01*
X1279199Y1163445D01*
X1284365Y1169302D01*
X1278508Y1174468D01*
D02*
G37*
G36*
X1286270Y1167622D02*
X1281104Y1161764D01*
X1286961Y1156598D01*
X1292127Y1162455D01*
X1286270Y1167622D01*
D02*
G37*
G36*
X1271661Y1166706D02*
X1266495Y1160848D01*
X1272352Y1155682D01*
X1277518Y1161540D01*
X1271661Y1166706D01*
D02*
G37*
G36*
X1279423Y1159859D02*
X1274257Y1154002D01*
X1280114Y1148836D01*
X1285281Y1154693D01*
X1279423Y1159859D01*
D02*
G37*
G36*
X1266637Y1154766D02*
X1264518Y1154633D01*
X1262505Y1153957D01*
X1260736Y1152782D01*
X1259332Y1151190D01*
X1258387Y1149288D01*
X1257967Y1147207D01*
X1258100Y1145088D01*
X1258777Y1143075D01*
X1259951Y1141306D01*
X1261544Y1139902D01*
X1263445Y1138957D01*
X1265527Y1138537D01*
X1267646Y1138670D01*
X1269658Y1139347D01*
X1271427Y1140521D01*
X1272832Y1142114D01*
X1273776Y1144015D01*
X1274196Y1146097D01*
X1274064Y1148216D01*
X1273387Y1150228D01*
X1272212Y1151997D01*
X1270620Y1153402D01*
X1268718Y1154346D01*
X1266637Y1154766D01*
D02*
G37*
G36*
X1712880Y1129445D02*
X1710757Y1129416D01*
X1708713Y1128838D01*
X1706889Y1127752D01*
X1705408Y1126230D01*
X1704371Y1124377D01*
X1703850Y1122319D01*
X1703879Y1120196D01*
X1704456Y1118153D01*
X1705542Y1116328D01*
X1707064Y1114847D01*
X1708917Y1113811D01*
X1710975Y1113289D01*
X1713098Y1113318D01*
X1715142Y1113895D01*
X1716966Y1114982D01*
X1718447Y1116503D01*
X1719483Y1118356D01*
X1720005Y1120415D01*
X1719976Y1122538D01*
X1719399Y1124581D01*
X1718313Y1126405D01*
X1716791Y1127886D01*
X1714938Y1128923D01*
X1712880Y1129445D01*
D02*
G37*
G36*
X1725316Y1116631D02*
X1718606Y1112634D01*
X1722603Y1105924D01*
X1729313Y1109921D01*
X1725316Y1116631D01*
D02*
G37*
G36*
X1716424Y1111335D02*
X1709714Y1107338D01*
X1713710Y1100628D01*
X1720421Y1104624D01*
X1716424Y1111335D01*
D02*
G37*
G36*
X1730612Y1107738D02*
X1723902Y1103742D01*
X1727899Y1097032D01*
X1734609Y1101028D01*
X1730612Y1107738D01*
D02*
G37*
G36*
X1721720Y1102442D02*
X1715010Y1098446D01*
X1719006Y1091736D01*
X1725717Y1095732D01*
X1721720Y1102442D01*
D02*
G37*
G36*
X1217729Y956275D02*
X1210030Y954966D01*
X1211338Y947267D01*
X1219038Y948576D01*
X1217729Y956275D01*
D02*
G37*
G36*
X1207525Y954541D02*
X1199826Y953232D01*
X1201135Y945532D01*
X1208834Y946841D01*
X1207525Y954541D01*
D02*
G37*
G36*
X1219464Y946072D02*
X1211764Y944763D01*
X1213073Y937063D01*
X1220773Y938372D01*
X1219464Y946072D01*
D02*
G37*
G36*
X1209260Y944337D02*
X1201561Y943028D01*
X1202870Y935329D01*
X1210569Y936637D01*
X1209260Y944337D01*
D02*
G37*
G36*
X1213347Y934213D02*
X1211253Y933857D01*
X1209324Y932972D01*
X1207689Y931617D01*
X1206460Y929885D01*
X1205722Y927894D01*
X1205524Y925780D01*
X1205880Y923687D01*
X1206765Y921757D01*
X1208120Y920122D01*
X1209852Y918894D01*
X1211842Y918155D01*
X1213957Y917957D01*
X1216050Y918313D01*
X1217980Y919199D01*
X1219615Y920554D01*
X1220843Y922285D01*
X1221581Y924276D01*
X1221779Y926390D01*
X1221424Y928483D01*
X1220538Y930413D01*
X1219183Y932048D01*
X1217451Y933277D01*
X1215461Y934015D01*
X1213347Y934213D01*
D02*
G37*
G36*
X1736123Y902193D02*
X1734032Y901827D01*
X1732106Y900931D01*
X1730478Y899568D01*
X1729259Y897830D01*
X1728530Y895836D01*
X1728343Y893721D01*
X1728710Y891629D01*
X1729605Y889704D01*
X1730968Y888076D01*
X1732706Y886857D01*
X1734700Y886128D01*
X1736815Y885941D01*
X1738907Y886307D01*
X1740832Y887203D01*
X1742460Y888566D01*
X1743680Y890304D01*
X1744408Y892298D01*
X1744595Y894413D01*
X1744229Y896505D01*
X1743334Y898430D01*
X1741971Y900058D01*
X1740233Y901278D01*
X1738238Y902006D01*
X1736123Y902193D01*
D02*
G37*
G36*
X1724194Y886924D02*
X1721515Y879588D01*
X1728851Y876909D01*
X1731530Y884246D01*
X1724194Y886924D01*
D02*
G37*
G36*
X1733916Y883374D02*
X1731237Y876038D01*
X1738574Y873359D01*
X1741252Y880695D01*
X1733916Y883374D01*
D02*
G37*
G36*
X1720644Y877202D02*
X1717965Y869866D01*
X1725301Y867187D01*
X1727980Y874523D01*
X1720644Y877202D01*
D02*
G37*
G36*
X1730366Y873652D02*
X1727687Y866316D01*
X1735023Y863637D01*
X1737702Y870973D01*
X1730366Y873652D01*
D02*
G37*
G36*
X1328879Y763769D02*
X1325074Y756948D01*
X1331894Y753143D01*
X1335699Y759963D01*
X1328879Y763769D01*
D02*
G37*
G36*
X1337917Y758726D02*
X1334112Y751906D01*
X1340932Y748100D01*
X1344737Y754921D01*
X1337917Y758726D01*
D02*
G37*
G36*
X1323836Y754730D02*
X1320031Y747910D01*
X1326851Y744105D01*
X1330656Y750925D01*
X1323836Y754730D01*
D02*
G37*
G36*
X1332874Y749688D02*
X1329069Y742867D01*
X1335889Y739062D01*
X1339695Y745882D01*
X1332874Y749688D01*
D02*
G37*
G36*
X1350793Y749749D02*
X1348669Y749718D01*
X1346627Y749138D01*
X1344804Y748050D01*
X1343325Y746527D01*
X1342290Y744672D01*
X1341771Y742614D01*
X1341802Y740491D01*
X1342381Y738448D01*
X1343470Y736625D01*
X1344993Y735146D01*
X1346848Y734111D01*
X1348906Y733592D01*
X1351030Y733623D01*
X1353072Y734203D01*
X1354895Y735291D01*
X1356374Y736814D01*
X1357409Y738669D01*
X1357928Y740727D01*
X1357897Y742850D01*
X1357318Y744893D01*
X1356229Y746716D01*
X1354706Y748195D01*
X1352851Y749230D01*
X1350793Y749749D01*
D02*
G37*
G36*
X1565732Y731437D02*
X1558412Y728713D01*
X1561136Y721393D01*
X1568456Y724117D01*
X1565732Y731437D01*
D02*
G37*
G36*
X1579429Y734864D02*
X1577316Y734663D01*
X1575325Y733923D01*
X1573595Y732692D01*
X1572242Y731056D01*
X1571358Y729125D01*
X1571005Y727032D01*
X1571205Y724918D01*
X1571946Y722928D01*
X1573176Y721197D01*
X1574812Y719844D01*
X1576743Y718961D01*
X1578837Y718607D01*
X1580951Y718808D01*
X1582941Y719548D01*
X1584671Y720779D01*
X1586024Y722415D01*
X1586908Y724346D01*
X1587261Y726439D01*
X1587061Y728553D01*
X1586320Y730543D01*
X1585090Y732273D01*
X1583454Y733626D01*
X1581523Y734510D01*
X1579429Y734864D01*
D02*
G37*
G36*
X1556032Y727827D02*
X1548712Y725103D01*
X1551436Y717783D01*
X1558756Y720507D01*
X1556032Y727827D01*
D02*
G37*
G36*
X1569342Y721737D02*
X1562022Y719013D01*
X1564746Y711693D01*
X1572066Y714417D01*
X1569342Y721737D01*
D02*
G37*
G36*
X1559642Y718127D02*
X1552322Y715403D01*
X1555046Y708083D01*
X1562366Y710807D01*
X1559642Y718127D01*
D02*
G37*
%LPD*%
D138*
X1509947Y1210554D02*
X1511030Y1211463D01*
X1521818Y1210520D01*
X1495682Y1211802D02*
X1509947Y1210554D01*
D141*
X1476714Y1250302D02*
D03*
X1534294Y1245264D02*
D03*
D142*
X1462033Y1246567D02*
D03*
X1548104Y1239037D02*
D03*
D143*
X1465676Y1288208D02*
D03*
X1551747Y1280678D02*
D03*
D144*
X1736469Y894067D02*
D03*
X1266082Y1146652D02*
D03*
X1213652Y926085D02*
D03*
X1711927Y1121367D02*
D03*
X1579133Y726736D02*
D03*
X1349850Y741671D02*
D03*
D145*
X1729609Y875281D02*
D03*
D146*
X1722161Y1104183D02*
D03*
D147*
X1560389Y719760D02*
D03*
D148*
X1279311Y1161652D02*
D03*
D149*
X1332384Y751415D02*
D03*
D150*
X1210299Y945802D02*
D03*
D151*
X1564090Y1159428D02*
D03*
X1566879Y1202337D02*
D03*
X1612295Y1062667D02*
D03*
X1347490Y1066053D02*
D03*
X1327664Y942018D02*
D03*
X1409178Y841003D02*
D03*
X1541735Y834560D02*
D03*
X1634548Y938589D02*
D03*
X1726817Y837500D02*
D03*
X1639936Y880620D02*
D03*
X1717200Y911938D02*
D03*
X1671273Y829326D02*
D03*
X1634532Y1248985D02*
D03*
X1576843Y1297603D02*
D03*
X1583866Y1289552D02*
D03*
X1575072Y1241416D02*
D03*
X1564761Y1242266D02*
D03*
X1564743Y1232532D02*
D03*
X1557008Y1227354D02*
D03*
X1685903Y1117713D02*
D03*
X1539794Y1303032D02*
D03*
X1527033Y1308447D02*
D03*
X1517315Y1303755D02*
D03*
X1508934Y1309663D02*
D03*
X1495225Y1305494D02*
D03*
X1533637Y1216017D02*
D03*
X1522396Y1222989D02*
D03*
X1528711Y1222513D02*
D03*
X1514894Y1150651D02*
D03*
X1749691Y1078160D02*
D03*
X1720952Y1029931D02*
D03*
X1661391Y1038027D02*
D03*
X1514946Y1074601D02*
D03*
X1580221Y752993D02*
D03*
X1529837Y697361D02*
D03*
X1506245Y791440D02*
D03*
X1483875Y1307323D02*
D03*
X1466999Y1229348D02*
D03*
X1451054Y1305084D02*
D03*
X1441704Y1304780D02*
D03*
X1460195Y1230643D02*
D03*
X1473632Y1228810D02*
D03*
X1360884Y1124028D02*
D03*
X1295668Y1195821D02*
D03*
X1350375Y1183211D02*
D03*
X1277520Y1122992D02*
D03*
X1290830Y985606D02*
D03*
X1351835Y839115D02*
D03*
X1487566Y734307D02*
D03*
X1370542Y757871D02*
D03*
X1238192Y1014627D02*
D03*
X1194000Y980000D02*
D03*
X1239244Y920113D02*
D03*
X1296231Y816283D02*
D03*
X1295520Y760146D02*
D03*
X1521818Y1210520D02*
D03*
X1495682Y1211802D02*
D03*
M02*
