M48
;Layer_Color=9474304
;FILE_FORMAT=4:4
METRIC,LZ
;TYPE=PLATED
T01F00S00C0.3000
T03F00S00C0.8000
;TYPE=NON_PLATED
T04F00S00C0.6500
%
T01
X0129552Y00760146
X01370542Y00757871
X01487566Y00734307
X01506245Y0079144
X01580221Y00752993
X01529837Y00697361
X01541735Y0083456
X01409178Y00841003
X01351835Y00839115
X01296231Y00816283
X01327664Y00942018
X0129083Y00985606
X01238192Y01014627
X01194Y0098
X01239244Y00920113
X0127752Y01122992
X01360884Y01124028
X01350375Y01183211
X0134749Y01066053
X01514946Y01074601
X01514894Y01150651
X0156409Y01159428
X01612295Y01062667
X01661391Y01038027
X01720952Y01029931
X01749691Y0107816
X01685903Y01117713
X01634548Y00938589
X01639936Y0088062
X01671273Y00829326
X01726817Y008375
X017172Y00911938
X01634532Y01248985
X01575072Y01241416
X01564761Y01242266
X01564743Y01232532
X01557008Y01227354
X01528711Y01222513
X01522396Y01222989
X01521818Y0121052
X01533637Y01216017
X01495682Y01211802
X01473632Y0122881
X01466999Y01229348
X01460195Y01230643
X01451054Y01305084
X01441704Y0130478
X01483875Y01307323
X01495225Y01305494
X01508934Y01309663
X01517315Y01303755
X01527033Y01308447
X01539794Y01303032
X01576843Y01297603
X01583866Y01289552
X01566879Y01202337
X01295668Y01195821
T03
X01332384Y00751415
X0134985Y00741671
X01560389Y0071976
X01579133Y00726736
X01213652Y00926085
X01210299Y00945802
X01266082Y01146652
X01279311Y01161652
X01711927Y01121367
X01722161Y01104183
X01736469Y00894067
X01729609Y00875281
T04
X01476714Y01250302
X01534294Y01245264
M30
